<svg id="SvgjsSvg1514" width="797.5" height="251" xmlns="http://www.w3.org/2000/svg" version="1.1" xmlns:xlink="http://www.w3.org/1999/xlink" xmlns:svgjs="http://svgjs.com/svgjs"><defs id="SvgjsDefs1515"><marker id="SvgjsMarker1524" markerWidth="16" markerHeight="12" refX="16" refY="6" viewBox="0 0 16 12" orient="auto" markerUnits="userSpaceOnUse" stroke-dasharray="0,0"><path id="SvgjsPath1525" d="M0,2 L14,6 L0,11 L0,2" fill="#323232" stroke="#323232" stroke-width="2"></path></marker><marker id="SvgjsMarker1536" markerWidth="16" markerHeight="12" refX="16" refY="6" viewBox="0 0 16 12" orient="auto" markerUnits="userSpaceOnUse" stroke-dasharray="0,0"><path id="SvgjsPath1537" d="M0,2 L14,6 L0,11 L0,2" fill="#323232" stroke="#323232" stroke-width="2"></path></marker><marker id="SvgjsMarker1546" markerWidth="16" markerHeight="12" refX="16" refY="6" viewBox="0 0 16 12" orient="auto" markerUnits="userSpaceOnUse" stroke-dasharray="0,0"><path id="SvgjsPath1547" d="M0,2 L14,6 L0,11 L0,2" fill="#323232" stroke="#323232" stroke-width="2"></path></marker><marker id="SvgjsMarker1562" markerWidth="16" markerHeight="12" refX="16" refY="6" viewBox="0 0 16 12" orient="auto" markerUnits="userSpaceOnUse" stroke-dasharray="0,0"><path id="SvgjsPath1563" d="M0,2 L14,6 L0,11 L0,2" fill="#323232" stroke="#323232" stroke-width="2"></path></marker><marker id="SvgjsMarker1574" markerWidth="16" markerHeight="12" refX="16" refY="6" viewBox="0 0 16 12" orient="auto" markerUnits="userSpaceOnUse" stroke-dasharray="0,0"><path id="SvgjsPath1575" d="M0,2 L14,6 L0,11 L0,2" fill="#323232" stroke="#323232" stroke-width="2"></path></marker><marker id="SvgjsMarker1594" markerWidth="16" markerHeight="12" refX="16" refY="6" viewBox="0 0 16 12" orient="auto" markerUnits="userSpaceOnUse" stroke-dasharray="0,0"><path id="SvgjsPath1595" d="M0,2 L14,6 L0,11 L0,2" fill="#323232" stroke="#323232" stroke-width="2"></path></marker><marker id="SvgjsMarker1612" markerWidth="16" markerHeight="12" refX="16" refY="6" viewBox="0 0 16 12" orient="auto" markerUnits="userSpaceOnUse" stroke-dasharray="0,0"><path id="SvgjsPath1613" d="M0,2 L14,6 L0,11 L0,2" fill="#323232" stroke="#323232" stroke-width="2"></path></marker><marker id="SvgjsMarker1624" markerWidth="16" markerHeight="12" refX="16" refY="6" viewBox="0 0 16 12" orient="auto" markerUnits="userSpaceOnUse" stroke-dasharray="0,0"><path id="SvgjsPath1625" d="M0,2 L14,6 L0,11 L0,2" fill="#323232" stroke="#323232" stroke-width="2"></path></marker><marker id="SvgjsMarker1628" markerWidth="16" markerHeight="12" refX="16" refY="6" viewBox="0 0 16 12" orient="auto" markerUnits="userSpaceOnUse" stroke-dasharray="0,0"><path id="SvgjsPath1629" d="M0,2 L14,6 L0,11 L0,2" fill="#323232" stroke="#323232" stroke-width="2"></path></marker></defs><g id="SvgjsG1516" transform="translate(25,35)"><path id="SvgjsPath1517" d="M 16.666666666666668 0L 83.33333333333333 0C 105.55555555555556 0 105.55555555555556 50 83.33333333333333 50L 16.666666666666668 50C -5.555555555555556 50 -5.555555555555556 0 16.666666666666668 0Z" stroke="rgba(50,50,50,1)" stroke-width="2" fill-opacity="1" fill="#ffffff"></path><g id="SvgjsG1518"><text id="SvgjsText1519" font-family="微软雅黑" text-anchor="middle" font-size="13px" width="80px" fill="#323232" font-weight="400" align="middle" lineHeight="125%" anchor="middle" family="微软雅黑" size="13px" weight="400" font-style="" opacity="1" y="15.375" transform="rotate(0)"><tspan id="SvgjsTspan1520" dy="16" x="50"><tspan id="SvgjsTspan1521" style="text-decoration:;">资源开始使用</tspan></tspan></text></g></g><g id="SvgjsG1522"><path id="SvgjsPath1523" d="M125 60L155.9375 60L155.9375 60L186.875 60" stroke="#323232" stroke-width="2" fill="none" marker-end="url(#SvgjsMarker1524)"></path></g><g id="SvgjsG1526" transform="translate(186.875,25)"><path id="SvgjsPath1527" d="M 0 0L 100 0L 100 70L 0 70Z" stroke="rgba(50,50,50,1)" stroke-width="2" fill-opacity="1" fill="#ffffff"></path><g id="SvgjsG1528"><text id="SvgjsText1529" font-family="微软雅黑" text-anchor="middle" font-size="13px" width="80px" fill="#323232" font-weight="400" align="middle" lineHeight="125%" anchor="middle" family="微软雅黑" size="13px" weight="400" font-style="" opacity="1" y="17.375" transform="rotate(0)"><tspan id="SvgjsTspan1530" dy="16" x="50"><tspan id="SvgjsTspan1531" style="text-decoration:;">鉴权资源使用</tspan></tspan><tspan id="SvgjsTspan1532" dy="16" x="50"><tspan id="SvgjsTspan1533" style="text-decoration:;">者</tspan></tspan></text></g></g><g id="SvgjsG1534"><path id="SvgjsPath1535" d="M286.875 60L317.8125 60L317.8125 60L348.75 60" stroke="#323232" stroke-width="2" fill="none" marker-end="url(#SvgjsMarker1536)"></path></g><g id="SvgjsG1538" transform="translate(348.75,25)"><path id="SvgjsPath1539" d="M 0 35L 50 0L 100 35L 50 70L 0 35Z" stroke="rgba(50,50,50,1)" stroke-width="2" fill-opacity="1" fill="#ffffff"></path><g id="SvgjsG1540"><text id="SvgjsText1541" font-family="微软雅黑" text-anchor="middle" font-size="13px" width="80px" fill="#323232" font-weight="400" align="middle" lineHeight="125%" anchor="middle" family="微软雅黑" size="13px" weight="400" font-style="" opacity="1" y="25.375" transform="rotate(0)"><tspan id="SvgjsTspan1542" dy="16" x="50"><tspan id="SvgjsTspan1543" style="text-decoration:;">鉴权通过？</tspan></tspan></text></g></g><g id="SvgjsG1544"><path id="SvgjsPath1545" d="M448.75 60L479.6875 60L479.6875 60L510.625 60" stroke="#323232" stroke-width="2" fill="none" marker-end="url(#SvgjsMarker1546)"></path><rect id="SvgjsRect1548" width="13" height="16" x="473.1875" y="52" fill="#ffffff"></rect><text id="SvgjsText1549" font-family="微软雅黑" text-anchor="middle" font-size="13px" width="13px" fill="#323232" font-weight="400" align="top" lineHeight="16px" anchor="middle" family="微软雅黑" size="13px" weight="400" font-style="" opacity="1" y="50.375" transform="rotate(0)"><tspan id="SvgjsTspan1550" dy="16" x="479.6875"><tspan id="SvgjsTspan1551" style="text-decoration:;">是</tspan></tspan></text></g><g id="SvgjsG1552" transform="translate(510.625,25)"><path id="SvgjsPath1553" d="M 0 0L 100 0L 100 70L 0 70Z" stroke="rgba(50,50,50,1)" stroke-width="2" fill-opacity="1" fill="#ffffff"></path><g id="SvgjsG1554"><text id="SvgjsText1555" font-family="微软雅黑" text-anchor="middle" font-size="13px" width="80px" fill="#323232" font-weight="400" align="middle" lineHeight="125%" anchor="middle" family="微软雅黑" size="13px" weight="400" font-style="" opacity="1" y="17.375" transform="rotate(0)"><tspan id="SvgjsTspan1556" dy="16" x="50"><tspan id="SvgjsTspan1557" style="text-decoration:;">根据配额模式</tspan></tspan><tspan id="SvgjsTspan1558" dy="16" x="50"><tspan id="SvgjsTspan1559" style="text-decoration:;">尝试进行消耗</tspan></tspan></text></g></g><g id="SvgjsG1560"><path id="SvgjsPath1561" d="M560.625 95L560.625 125.5L560.625 125.5L560.625 156" stroke="#323232" stroke-width="2" fill="none" marker-end="url(#SvgjsMarker1562)"></path></g><g id="SvgjsG1564" transform="translate(515.625,156)"><path id="SvgjsPath1565" d="M 0 35L 45 0L 90 35L 45 70L 0 35Z" stroke="rgba(50,50,50,1)" stroke-width="2" fill-opacity="1" fill="#ffffff"></path><g id="SvgjsG1566"><text id="SvgjsText1567" font-family="微软雅黑" text-anchor="middle" font-size="13px" width="70px" fill="#323232" font-weight="400" align="middle" lineHeight="125%" anchor="middle" family="微软雅黑" size="13px" weight="400" font-style="" opacity="1" y="17.375" transform="rotate(0)"><tspan id="SvgjsTspan1568" dy="16" x="45"><tspan id="SvgjsTspan1569" style="text-decoration:;">配额是否耗</tspan></tspan><tspan id="SvgjsTspan1570" dy="16" x="45"><tspan id="SvgjsTspan1571" style="text-decoration:;">尽？</tspan></tspan></text></g></g><g id="SvgjsG1572"><path id="SvgjsPath1573" d="M605.625 191L639.0625 191L639.0625 191L672.5 191" stroke="#323232" stroke-width="2" fill="none" marker-end="url(#SvgjsMarker1574)"></path><rect id="SvgjsRect1576" width="13" height="16" x="632.5625" y="183" fill="#ffffff"></rect><text id="SvgjsText1577" font-family="微软雅黑" text-anchor="middle" font-size="13px" width="13px" fill="#323232" font-weight="400" align="top" lineHeight="16px" anchor="middle" family="微软雅黑" size="13px" weight="400" font-style="" opacity="1" y="181.375" transform="rotate(0)"><tspan id="SvgjsTspan1578" dy="16" x="639.0625"><tspan id="SvgjsTspan1579" style="text-decoration:;">否</tspan></tspan></text></g><g id="SvgjsG1580" transform="translate(672.5,35)"><path id="SvgjsPath1581" d="M 16.666666666666668 0L 83.33333333333333 0C 105.55555555555556 0 105.55555555555556 50 83.33333333333333 50L 16.666666666666668 50C -5.555555555555556 50 -5.555555555555556 0 16.666666666666668 0Z" stroke="rgba(50,50,50,1)" stroke-width="2" fill-opacity="1" fill="#ffffff"></path><g id="SvgjsG1582"><text id="SvgjsText1583" font-family="微软雅黑" text-anchor="middle" font-size="13px" width="80px" fill="#323232" font-weight="400" align="middle" lineHeight="125%" anchor="middle" family="微软雅黑" size="13px" weight="400" font-style="" opacity="1" y="15.375" transform="rotate(0)"><tspan id="SvgjsTspan1584" dy="16" x="50"><tspan id="SvgjsTspan1585" style="text-decoration:;">资源使用完成</tspan></tspan></text></g></g><g id="SvgjsG1586" transform="translate(186.875,166)"><path id="SvgjsPath1587" d="M 16.666666666666668 0L 83.33333333333333 0C 105.55555555555556 0 105.55555555555556 50 83.33333333333333 50L 16.666666666666668 50C -5.555555555555556 50 -5.555555555555556 0 16.666666666666668 0Z" stroke="rgba(50,50,50,1)" stroke-width="2" fill-opacity="1" fill="#ffffff"></path><g id="SvgjsG1588"><text id="SvgjsText1589" font-family="微软雅黑" text-anchor="middle" font-size="13px" width="80px" fill="#323232" font-weight="400" align="middle" lineHeight="125%" anchor="middle" family="微软雅黑" size="13px" weight="400" font-style="" opacity="1" y="15.375" transform="rotate(0)"><tspan id="SvgjsTspan1590" dy="16" x="50"><tspan id="SvgjsTspan1591" style="text-decoration:;">资源使用失败</tspan></tspan></text></g></g><g id="SvgjsG1592"><path id="SvgjsPath1593" d="M515.625 191L482.1875 191L482.1875 191L448.75 191" stroke="#323232" stroke-width="2" fill="none" marker-end="url(#SvgjsMarker1594)"></path><rect id="SvgjsRect1596" width="13" height="16" x="475.6875" y="183" fill="#ffffff"></rect><text id="SvgjsText1597" font-family="微软雅黑" text-anchor="middle" font-size="13px" width="13px" fill="#323232" font-weight="400" align="top" lineHeight="16px" anchor="middle" family="微软雅黑" size="13px" weight="400" font-style="" opacity="1" y="181.375" transform="rotate(0)"><tspan id="SvgjsTspan1598" dy="16" x="482.1875"><tspan id="SvgjsTspan1599" style="text-decoration:;">是</tspan></tspan></text></g><g id="SvgjsG1600" transform="translate(672.5,156)"><path id="SvgjsPath1601" d="M 0 0L 100 0L 100 70L 0 70Z" stroke="rgba(50,50,50,1)" stroke-width="2" fill-opacity="1" fill="#ffffff"></path><g id="SvgjsG1602"><text id="SvgjsText1603" font-family="微软雅黑" text-anchor="middle" font-size="13px" width="80px" fill="#323232" font-weight="400" align="middle" lineHeight="125%" anchor="middle" family="微软雅黑" size="13px" weight="400" font-style="" opacity="1" y="9.375" transform="rotate(0)"><tspan id="SvgjsTspan1604" dy="16" x="50"><tspan id="SvgjsTspan1605" style="text-decoration:;">发布「配额已</tspan></tspan><tspan id="SvgjsTspan1606" dy="16" x="50"><tspan id="SvgjsTspan1607" style="text-decoration:;">消耗」领域事</tspan></tspan><tspan id="SvgjsTspan1608" dy="16" x="50"><tspan id="SvgjsTspan1609" style="text-decoration:;">件</tspan></tspan></text></g></g><g id="SvgjsG1610"><path id="SvgjsPath1611" d="M722.5 156L722.5 120.5L722.5 120.5L722.5 85" stroke="#323232" stroke-width="2" fill="none" marker-end="url(#SvgjsMarker1612)"></path></g><g id="SvgjsG1614" transform="translate(348.75,156)"><path id="SvgjsPath1615" d="M 0 0L 100 0L 100 70L 0 70Z" stroke="rgba(50,50,50,1)" stroke-width="2" fill-opacity="1" fill="#ffffff"></path><g id="SvgjsG1616"><text id="SvgjsText1617" font-family="微软雅黑" text-anchor="middle" font-size="13px" width="80px" fill="#323232" font-weight="400" align="middle" lineHeight="125%" anchor="middle" family="微软雅黑" size="13px" weight="400" font-style="" opacity="1" y="17.375" transform="rotate(0)"><tspan id="SvgjsTspan1618" dy="16" x="50"><tspan id="SvgjsTspan1619" style="text-decoration:;">发布「配额耗</tspan></tspan><tspan id="SvgjsTspan1620" dy="16" x="50"><tspan id="SvgjsTspan1621" style="text-decoration:;">尽」领域事件</tspan></tspan></text></g></g><g id="SvgjsG1622"><path id="SvgjsPath1623" d="M348.75 191L317.8125 191L317.8125 191L286.875 191" stroke="#323232" stroke-width="2" fill="none" marker-end="url(#SvgjsMarker1624)"></path></g><g id="SvgjsG1626"><path id="SvgjsPath1627" d="M398.75 95L398.75 130.5L236.875 130.5L236.875 166" stroke="#323232" stroke-width="2" fill="none" marker-end="url(#SvgjsMarker1628)"></path><rect id="SvgjsRect1630" width="13" height="16" x="311.3125" y="122.5" fill="#ffffff"></rect><text id="SvgjsText1631" font-family="微软雅黑" text-anchor="middle" font-size="13px" width="13px" fill="#323232" font-weight="400" align="top" lineHeight="16px" anchor="middle" family="微软雅黑" size="13px" weight="400" font-style="" opacity="1" y="120.875" transform="rotate(0)"><tspan id="SvgjsTspan1632" dy="16" x="317.8125"><tspan id="SvgjsTspan1633" style="text-decoration:;">否</tspan></tspan></text></g></svg>