<svg id="SvgjsSvg1006" width="662.5" height="414.75" xmlns="http://www.w3.org/2000/svg" version="1.1" xmlns:xlink="http://www.w3.org/1999/xlink" xmlns:svgjs="http://svgjs.com/svgjs"><defs id="SvgjsDefs1007"><marker id="SvgjsMarker1036" markerWidth="16" markerHeight="12" refX="0" refY="6" viewBox="0 0 16 12" orient="auto" markerUnits="userSpaceOnUse" stroke-dasharray="0,0"><path id="SvgjsPath1037" d="M15,1.5 L2,6 L15,10.5" fill="#323232" stroke="#323232" stroke-width="2"></path></marker><marker id="SvgjsMarker1044" markerWidth="16" markerHeight="12" refX="16" refY="6" viewBox="0 0 16 12" orient="auto" markerUnits="userSpaceOnUse" stroke-dasharray="0,0"><path id="SvgjsPath1045" d="M0,2 L14,6 L0,11 L0,2" fill="#323232" stroke="#323232" stroke-width="2"></path></marker><marker id="SvgjsMarker1090" markerWidth="16" markerHeight="12" refX="0" refY="6" viewBox="0 0 16 12" orient="auto" markerUnits="userSpaceOnUse" stroke-dasharray="0,0"><path id="SvgjsPath1091" d="M15,1.5 L2,6 L15,10.5" fill="#323232" stroke="#323232" stroke-width="2"></path></marker><marker id="SvgjsMarker1092" markerWidth="16" markerHeight="12" refX="16" refY="6" viewBox="0 0 16 12" orient="auto" markerUnits="userSpaceOnUse" stroke-dasharray="0,0"><path id="SvgjsPath1093" d="M0,2 L14,6 L0,11 L0,2" fill="#323232" stroke="#323232" stroke-width="2"></path></marker><marker id="SvgjsMarker1100" markerWidth="16" markerHeight="12" refX="0" refY="6" viewBox="0 0 16 12" orient="auto" markerUnits="userSpaceOnUse" stroke-dasharray="0,0"><path id="SvgjsPath1101" d="M15,1.5 L2,6 L15,10.5" fill="#323232" stroke="#323232" stroke-width="2"></path></marker><marker id="SvgjsMarker1102" markerWidth="16" markerHeight="12" refX="16" refY="6" viewBox="0 0 16 12" orient="auto" markerUnits="userSpaceOnUse" stroke-dasharray="0,0"><path id="SvgjsPath1103" d="M0,2 L14,6 L0,11 L0,2" fill="#323232" stroke="#323232" stroke-width="2"></path></marker><marker id="SvgjsMarker1110" markerWidth="16" markerHeight="12" refX="16" refY="6" viewBox="0 0 16 12" orient="auto" markerUnits="userSpaceOnUse" stroke-dasharray="0,0"><path id="SvgjsPath1111" d="M0,2 L14,6 L0,11 L0,2" fill="#323232" stroke="#323232" stroke-width="2"></path></marker><marker id="SvgjsMarker1118" markerWidth="16" markerHeight="12" refX="16" refY="6" viewBox="0 0 16 12" orient="auto" markerUnits="userSpaceOnUse" stroke-dasharray="0,0"><path id="SvgjsPath1119" d="M0,2 L14,6 L0,11 L0,2" fill="#323232" stroke="#323232" stroke-width="2"></path></marker><marker id="SvgjsMarker1126" markerWidth="16" markerHeight="12" refX="16" refY="6" viewBox="0 0 16 12" orient="auto" markerUnits="userSpaceOnUse" stroke-dasharray="0,0"><path id="SvgjsPath1127" d="M0,2 L14,6 L0,11 L0,2" fill="#323232" stroke="#323232" stroke-width="2"></path></marker><marker id="SvgjsMarker1134" markerWidth="16" markerHeight="12" refX="0" refY="6" viewBox="0 0 16 12" orient="auto" markerUnits="userSpaceOnUse" stroke-dasharray="0,0"><path id="SvgjsPath1135" d="M15,1.5 L2,6 L15,10.5" fill="#323232" stroke="#323232" stroke-width="2"></path></marker><marker id="SvgjsMarker1136" markerWidth="16" markerHeight="12" refX="16" refY="6" viewBox="0 0 16 12" orient="auto" markerUnits="userSpaceOnUse" stroke-dasharray="0,0"><path id="SvgjsPath1137" d="M0,2 L14,6 L0,11 L0,2" fill="#323232" stroke="#323232" stroke-width="2"></path></marker></defs><g id="SvgjsG1008" transform="translate(183.5,281.75)"><path id="SvgjsPath1009" d="M 0 4Q 0 0 4 0L 247 0Q 251 0 251 4L 251 104Q 251 108 247 108L 4 108Q 0 108 0 104Z" stroke="rgba(50,50,50,1)" stroke-width="2" fill-opacity="1" fill="#ffffff"></path><g id="SvgjsG1010"><text id="SvgjsText1011" font-family="&quot;Comic Sans MS&quot;" text-anchor="middle" font-size="13px" width="241px" fill="#323232" font-weight="700" align="middle" lineHeight="125%" anchor="middle" family="&quot;Comic Sans MS&quot;" size="13px" weight="700" font-style="" opacity="1" y="-1.4107142857142865" transform="rotate(0)"><tspan id="SvgjsTspan1012" dy="16" x="125.5"><tspan id="SvgjsTspan1013" style="text-decoration:;">Bussiness Service</tspan></tspan></text></g></g><g id="SvgjsG1014" transform="translate(367.5,25)"><path id="SvgjsPath1015" d="M 0 4Q 0 0 4 0L 266 0Q 270 0 270 4L 270 120.5Q 270 124.5 266 124.5L 4 124.5Q 0 124.5 0 120.5Z" stroke="rgba(50,50,50,1)" stroke-width="2" fill-opacity="1" fill="#ffffff"></path><g id="SvgjsG1016"><text id="SvgjsText1017" font-family="&quot;Comic Sans MS&quot;" text-anchor="middle" font-size="13px" width="260px" fill="#323232" font-weight="700" align="middle" lineHeight="125%" anchor="middle" family="&quot;Comic Sans MS&quot;" size="13px" weight="700" font-style="" opacity="1" y="-0.23214285714285765" transform="rotate(0)"><tspan id="SvgjsTspan1018" dy="16" x="135"><tspan id="SvgjsTspan1019" style="text-decoration:;">Second Gateway</tspan></tspan></text></g></g><g id="SvgjsG1020" transform="translate(25,52.25)"><path id="SvgjsPath1021" d="M 10.799999999999999 49C -9 35 3.6 24.5 8.1 21C 6.300000000000001 3.5 28.8 0 37.8 7C 45 -3.5 67.5 0 67.5 10.5C 85.5 7 92.7 21 85.5 38.5C 91.8 52.5 85.5 70 64.8 63C 60.300000000000004 72.10000000000001 42.3 72.10000000000001 37.8 63C 28.8 70 10.799999999999999 66.5 10.799999999999999 49Z" stroke="rgba(50,50,50,1)" stroke-width="2" fill-opacity="1" fill="#ffffff"></path><g id="SvgjsG1022"><text id="SvgjsText1023" font-family="微软雅黑" text-anchor="middle" font-size="13px" width="70px" fill="#323232" font-weight="400" align="middle" lineHeight="125%" anchor="middle" family="微软雅黑" size="13px" weight="400" font-style="" opacity="1" y="24.875" transform="rotate(0)"><tspan id="SvgjsTspan1024" dy="16" x="45"><tspan id="SvgjsTspan1025" style="text-decoration:;">Web</tspan></tspan></text></g></g><g id="SvgjsG1026" transform="translate(183.5,52.25)"><path id="SvgjsPath1027" d="M 0 4Q 0 0 4 0L 96 0Q 100 0 100 4L 100 66Q 100 70 96 70L 4 70Q 0 70 0 66Z" stroke="rgba(50,50,50,1)" stroke-width="2" fill-opacity="1" fill="#fddfbb"></path><g id="SvgjsG1028"><text id="SvgjsText1029" font-family="&quot;Comic Sans MS&quot;" text-anchor="middle" font-size="13px" width="80px" fill="#323232" font-weight="700" align="middle" lineHeight="125%" anchor="middle" family="&quot;Comic Sans MS&quot;" size="13px" weight="700" font-style="" opacity="1" y="16.375" transform="rotate(0)"><tspan id="SvgjsTspan1030" dy="16" x="50"><tspan id="SvgjsTspan1031" style="text-decoration:;">Master </tspan></tspan><tspan id="SvgjsTspan1032" dy="16" x="50"><tspan id="SvgjsTspan1033" style="text-decoration:;">Gateway</tspan></tspan></text></g></g><g id="SvgjsG1034"><path id="SvgjsPath1035" d="M183.5 87.25L147 87.25L147 87.25L110.5 87.25" stroke="#323232" stroke-width="2" fill="none" marker-start="url(#SvgjsMarker1036)"></path><rect id="SvgjsRect1038" width="14" height="16" x="140" y="79.25" fill="#ffffff"></rect><text id="SvgjsText1039" font-family="微软雅黑" text-anchor="middle" font-size="13px" width="14px" fill="#323232" font-weight="400" align="top" lineHeight="16px" anchor="middle" family="微软雅黑" size="13px" weight="400" font-style="" opacity="1" y="77.625" transform="rotate(0)"><tspan id="SvgjsTspan1040" dy="16" x="147"><tspan id="SvgjsTspan1041" style="text-decoration:;">s1</tspan></tspan></text></g><g id="SvgjsG1042"><path id="SvgjsPath1043" d="M283.5 72.25L325.5 72.25L325.5 72.25L367.5 72.25" stroke="#323232" stroke-width="2" fill="none" marker-end="url(#SvgjsMarker1044)"></path><rect id="SvgjsRect1046" width="14" height="16" x="318.5" y="64.25" fill="#ffffff"></rect><text id="SvgjsText1047" font-family="微软雅黑" text-anchor="middle" font-size="13px" width="14px" fill="#323232" font-weight="400" align="top" lineHeight="16px" anchor="middle" family="微软雅黑" size="13px" weight="400" font-style="" opacity="1" y="62.625" transform="rotate(0)"><tspan id="SvgjsTspan1048" dy="16" x="325.5"><tspan id="SvgjsTspan1049" style="text-decoration:;">s2</tspan></tspan></text></g><g id="SvgjsG1050" transform="translate(380.5,52.25)"><path id="SvgjsPath1051" d="M 0 4Q 0 0 4 0L 96 0Q 100 0 100 4L 100 66Q 100 70 96 70L 4 70Q 0 70 0 66Z" stroke="rgba(50,50,50,1)" stroke-width="2" fill-opacity="1" fill="#ffffff"></path><g id="SvgjsG1052"><text id="SvgjsText1053" font-family="微软雅黑" text-anchor="middle" font-size="13px" width="80px" fill="#323232" font-weight="400" align="middle" lineHeight="125%" anchor="middle" family="微软雅黑" size="13px" weight="400" font-style="" opacity="1" y="24.875" transform="rotate(0)"><tspan id="SvgjsTspan1054" dy="16" x="50"><tspan id="SvgjsTspan1055" style="text-decoration:;">Auth Client</tspan></tspan></text></g></g><g id="SvgjsG1056" transform="translate(520.5,52.25)"><path id="SvgjsPath1057" d="M 0 4Q 0 0 4 0L 96 0Q 100 0 100 4L 100 66Q 100 70 96 70L 4 70Q 0 70 0 66Z" stroke="rgba(50,50,50,1)" stroke-width="2" fill-opacity="1" fill="#b2d4eb"></path><g id="SvgjsG1058"><text id="SvgjsText1059" font-family="&quot;Comic Sans MS&quot;" text-anchor="middle" font-size="13px" width="80px" fill="#000000" font-weight="400" align="middle" lineHeight="125%" anchor="middle" family="&quot;Comic Sans MS&quot;" size="13px" weight="400" font-style="" opacity="1" y="16.375" transform="rotate(0)"><tspan id="SvgjsTspan1060" dy="16" x="50"><tspan id="SvgjsTspan1061" style="text-decoration:;">Quota </tspan></tspan><tspan id="SvgjsTspan1062" dy="16" x="50"><tspan id="SvgjsTspan1063" style="text-decoration:;">Client</tspan></tspan></text></g></g><g id="SvgjsG1064" transform="translate(196.25,307.125)"><path id="SvgjsPath1065" d="M 0 4Q 0 0 4 0L 96 0Q 100 0 100 4L 100 66Q 100 70 96 70L 4 70Q 0 70 0 66Z" stroke="rgba(50,50,50,1)" stroke-width="2" fill-opacity="1" fill="#ffffff"></path><g id="SvgjsG1066"><text id="SvgjsText1067" font-family="微软雅黑" text-anchor="middle" font-size="13px" width="80px" fill="#323232" font-weight="400" align="middle" lineHeight="125%" anchor="middle" family="微软雅黑" size="13px" weight="400" font-style="" opacity="1" y="16.375" transform="rotate(0)"><tspan id="SvgjsTspan1068" dy="16" x="50"><tspan id="SvgjsTspan1069" style="text-decoration:;">Bussiness </tspan></tspan><tspan id="SvgjsTspan1070" dy="16" x="50"><tspan id="SvgjsTspan1071" style="text-decoration:;">Service</tspan></tspan></text></g></g><g id="SvgjsG1072" transform="translate(380.5,180.625)"><path id="SvgjsPath1073" d="M 0 4Q 0 0 4 0L 96 0Q 100 0 100 4L 100 66Q 100 70 96 70L 4 70Q 0 70 0 66Z" stroke="rgba(50,50,50,1)" stroke-width="2" fill-opacity="1" fill="#ffffff"></path><g id="SvgjsG1074"><text id="SvgjsText1075" font-family="微软雅黑" text-anchor="middle" font-size="13px" width="80px" fill="#323232" font-weight="400" align="middle" lineHeight="125%" anchor="middle" family="微软雅黑" size="13px" weight="400" font-style="" opacity="1" y="16.375" transform="rotate(0)"><tspan id="SvgjsTspan1076" dy="16" x="50"><tspan id="SvgjsTspan1077" style="text-decoration:;">Auth </tspan></tspan><tspan id="SvgjsTspan1078" dy="16" x="50"><tspan id="SvgjsTspan1079" style="text-decoration:;">Service</tspan></tspan></text></g></g><g id="SvgjsG1080" transform="translate(520.5,307.125)"><path id="SvgjsPath1081" d="M 0 4Q 0 0 4 0L 96 0Q 100 0 100 4L 100 66Q 100 70 96 70L 4 70Q 0 70 0 66Z" stroke="rgba(50,50,50,1)" stroke-width="2" fill-opacity="1" fill="#0071bc"></path><g id="SvgjsG1082"><text id="SvgjsText1083" font-family="&quot;Comic Sans MS&quot;" text-anchor="middle" font-size="13px" width="80px" fill="#ffffff" font-weight="700" align="middle" lineHeight="125%" anchor="middle" family="&quot;Comic Sans MS&quot;" size="13px" weight="700" font-style="" opacity="1" y="16.375" transform="rotate(0)"><tspan id="SvgjsTspan1084" dy="16" x="50"><tspan id="SvgjsTspan1085" style="text-decoration:;">Quota </tspan></tspan><tspan id="SvgjsTspan1086" dy="16" x="50"><tspan id="SvgjsTspan1087" style="text-decoration:;">Service</tspan></tspan></text></g></g><g id="SvgjsG1088"><path id="SvgjsPath1089" d="M430.5 122.25L430.5 151.4375L430.5 151.4375L430.5 180.625" stroke="#323232" stroke-width="2" fill="none" marker-start="url(#SvgjsMarker1090)" marker-end="url(#SvgjsMarker1092)"></path><rect id="SvgjsRect1094" width="14" height="16" x="423.5" y="143.4375" fill="#ffffff"></rect><text id="SvgjsText1095" font-family="微软雅黑" text-anchor="middle" font-size="13px" width="14px" fill="#323232" font-weight="400" align="top" lineHeight="16px" anchor="middle" family="微软雅黑" size="13px" weight="400" font-style="" opacity="1" y="141.8125" transform="rotate(0)"><tspan id="SvgjsTspan1096" dy="16" x="430.5"><tspan id="SvgjsTspan1097" style="text-decoration:;">s3</tspan></tspan></text></g><g id="SvgjsG1098"><path id="SvgjsPath1099" d="M570.5 122.25L570.5 214.6875L570.5 214.6875L570.5 307.125" stroke="#323232" stroke-width="2" fill="none" marker-start="url(#SvgjsMarker1100)" marker-end="url(#SvgjsMarker1102)"></path><rect id="SvgjsRect1104" width="14" height="16" x="563.5" y="206.6875" fill="#ffffff"></rect><text id="SvgjsText1105" font-family="微软雅黑" text-anchor="middle" font-size="13px" width="14px" fill="#323232" font-weight="400" align="top" lineHeight="16px" anchor="middle" family="微软雅黑" size="13px" weight="400" font-style="" opacity="1" y="205.0625" transform="rotate(0)"><tspan id="SvgjsTspan1106" dy="16" x="570.5"><tspan id="SvgjsTspan1107" style="text-decoration:;">s5</tspan></tspan></text></g><g id="SvgjsG1108"><path id="SvgjsPath1109" d="M480.5 87.25L500.5 87.25L500.5 87.25L520.5 87.25" stroke="#323232" stroke-width="2" fill="none" marker-end="url(#SvgjsMarker1110)"></path><rect id="SvgjsRect1112" width="14" height="16" x="485.75" y="78.375" fill="#ffffff"></rect><text id="SvgjsText1113" font-family="微软雅黑" text-anchor="middle" font-size="13px" width="14px" fill="#323232" font-weight="400" align="top" lineHeight="16px" anchor="middle" family="微软雅黑" size="13px" weight="400" font-style="" opacity="1" y="76.75" transform="rotate(0)"><tspan id="SvgjsTspan1114" dy="16" x="492.75"><tspan id="SvgjsTspan1115" style="text-decoration:;">s4</tspan></tspan></text></g><g id="SvgjsG1116"><path id="SvgjsPath1117" d="M367.5 102.25L325.5 102.25L325.5 102.25L283.5 102.25" stroke="#323232" stroke-width="2" fill="none" marker-end="url(#SvgjsMarker1118)"></path><rect id="SvgjsRect1120" width="14" height="16" x="318.5" y="94.25" fill="#ffffff"></rect><text id="SvgjsText1121" font-family="微软雅黑" text-anchor="middle" font-size="13px" width="14px" fill="#323232" font-weight="400" align="top" lineHeight="16px" anchor="middle" family="微软雅黑" size="13px" weight="400" font-style="" opacity="1" y="92.625" transform="rotate(0)"><tspan id="SvgjsTspan1122" dy="16" x="325.5"><tspan id="SvgjsTspan1123" style="text-decoration:;">s6</tspan></tspan></text></g><g id="SvgjsG1124"><path id="SvgjsPath1125" d="M233.5 122.25L233.5 202.3125L233.5 202.3125L233.5 282.375" stroke="#323232" stroke-width="2" fill="none" marker-end="url(#SvgjsMarker1126)"></path><rect id="SvgjsRect1128" width="14" height="16" x="226.5" y="194.3125" fill="#ffffff"></rect><text id="SvgjsText1129" font-family="微软雅黑" text-anchor="middle" font-size="13px" width="14px" fill="#323232" font-weight="400" align="top" lineHeight="16px" anchor="middle" family="微软雅黑" size="13px" weight="400" font-style="" opacity="1" y="192.6875" transform="rotate(0)"><tspan id="SvgjsTspan1130" dy="16" x="233.5"><tspan id="SvgjsTspan1131" style="text-decoration:;">s7</tspan></tspan></text></g><g id="SvgjsG1132"><path id="SvgjsPath1133" d="M422.25 342.125L471.375 342.125L471.375 342.125L520.5 342.125" stroke="#323232" stroke-width="2" fill="none" marker-start="url(#SvgjsMarker1134)" marker-end="url(#SvgjsMarker1136)"></path><rect id="SvgjsRect1138" width="14" height="16" x="464.375" y="334.125" fill="#ffffff"></rect><text id="SvgjsText1139" font-family="微软雅黑" text-anchor="middle" font-size="13px" width="14px" fill="#323232" font-weight="400" align="top" lineHeight="16px" anchor="middle" family="微软雅黑" size="13px" weight="400" font-style="" opacity="1" y="332.5" transform="rotate(0)"><tspan id="SvgjsTspan1140" dy="16" x="471.375"><tspan id="SvgjsTspan1141" style="text-decoration:;">s8</tspan></tspan></text></g><g id="SvgjsG1142" transform="translate(322.25,307.125)"><path id="SvgjsPath1143" d="M 0 4Q 0 0 4 0L 96 0Q 100 0 100 4L 100 66Q 100 70 96 70L 4 70Q 0 70 0 66Z" stroke="rgba(50,50,50,1)" stroke-width="2" fill-opacity="1" fill="#b2d4eb"></path><g id="SvgjsG1144"><text id="SvgjsText1145" font-family="&quot;Comic Sans MS&quot;" text-anchor="middle" font-size="13px" width="80px" fill="#000000" font-weight="400" align="middle" lineHeight="125%" anchor="middle" family="&quot;Comic Sans MS&quot;" size="13px" weight="400" font-style="" opacity="1" y="16.375" transform="rotate(0)"><tspan id="SvgjsTspan1146" dy="16" x="50"><tspan id="SvgjsTspan1147" style="text-decoration:;">Quota </tspan></tspan><tspan id="SvgjsTspan1148" dy="16" x="50"><tspan id="SvgjsTspan1149" style="text-decoration:;">Client</tspan></tspan></text></g></g></svg>