<svg id="SvgjsSvg1006" width="1000.75" height="410" xmlns="http://www.w3.org/2000/svg" version="1.1" xmlns:xlink="http://www.w3.org/1999/xlink" xmlns:svgjs="http://svgjs.com/svgjs"><defs id="SvgjsDefs1007"><marker id="SvgjsMarker1078" markerWidth="16" markerHeight="12" refX="16" refY="6" viewBox="0 0 16 12" orient="auto" markerUnits="userSpaceOnUse" stroke-dasharray="0,0"><path id="SvgjsPath1079" d="M0,2 L14,6 L0,11 L0,2" fill="#323232" stroke="#323232" stroke-width="2"></path></marker><marker id="SvgjsMarker1082" markerWidth="16" markerHeight="12" refX="16" refY="6" viewBox="0 0 16 12" orient="auto" markerUnits="userSpaceOnUse" stroke-dasharray="0,0"><path id="SvgjsPath1083" d="M0,2 L14,6 L0,11 L0,2" fill="#323232" stroke="#323232" stroke-width="2"></path></marker><marker id="SvgjsMarker1086" markerWidth="16" markerHeight="12" refX="16" refY="6" viewBox="0 0 16 12" orient="auto" markerUnits="userSpaceOnUse" stroke-dasharray="0,0"><path id="SvgjsPath1087" d="M0,2 L14,6 L0,11 L0,2" fill="#323232" stroke="#323232" stroke-width="2"></path></marker><marker id="SvgjsMarker1108" markerWidth="16" markerHeight="12" refX="16" refY="6" viewBox="0 0 16 12" orient="auto" markerUnits="userSpaceOnUse" stroke-dasharray="0,0"><path id="SvgjsPath1109" d="M0,2 L14,6 L0,11 L0,2" fill="#323232" stroke="#323232" stroke-width="2"></path></marker><marker id="SvgjsMarker1112" markerWidth="16" markerHeight="12" refX="16" refY="6" viewBox="0 0 16 12" orient="auto" markerUnits="userSpaceOnUse" stroke-dasharray="0,0"><path id="SvgjsPath1113" d="M0,2 L14,6 L0,11 L0,2" fill="#323232" stroke="#323232" stroke-width="2"></path></marker><marker id="SvgjsMarker1116" markerWidth="16" markerHeight="12" refX="16" refY="6" viewBox="0 0 16 12" orient="auto" markerUnits="userSpaceOnUse" stroke-dasharray="0,0"><path id="SvgjsPath1117" d="M0,2 L14,6 L0,11 L0,2" fill="#323232" stroke="#323232" stroke-width="2"></path></marker><marker id="SvgjsMarker1120" markerWidth="16" markerHeight="12" refX="16" refY="6" viewBox="0 0 16 12" orient="auto" markerUnits="userSpaceOnUse" stroke-dasharray="0,0"><path id="SvgjsPath1121" d="M0,2 L14,6 L0,11 L0,2" fill="#323232" stroke="#323232" stroke-width="2"></path></marker></defs><g id="SvgjsG1008" transform="translate(341,25)"><path id="SvgjsPath1009" d="M 0 4Q 0 0 4 0L 274.5 0Q 278.5 0 278.5 4L 278.5 356Q 278.5 360 274.5 360L 4 360Q 0 360 0 356Z" stroke="rgba(50,50,50,1)" stroke-width="2" fill-opacity="1" fill="#ffffff"></path><g id="SvgjsG1010"><text id="SvgjsText1011" font-family="微软雅黑" text-anchor="middle" font-size="13px" width="269px" fill="#323232" font-weight="700" align="middle" lineHeight="125%" anchor="middle" family="微软雅黑" size="13px" weight="700" font-style="" opacity="1" y="17.08928571428571" transform="rotate(0)"><tspan id="SvgjsTspan1012" dy="16" x="139.5"><tspan id="SvgjsTspan1013" style="text-decoration:;">资源配额管理系统</tspan></tspan></text></g></g><g id="SvgjsG1014" transform="translate(363.5,74)"><path id="SvgjsPath1015" d="M 0 4Q 0 0 4 0L 92 0Q 96 0 96 4L 96 52Q 96 56 92 56L 4 56Q 0 56 0 52Z" stroke="rgba(50,50,50,1)" stroke-width="2" fill-opacity="1" fill="#ffffff"></path><g id="SvgjsG1016"><text id="SvgjsText1017" font-family="&quot;Comic Sans MS&quot;" text-anchor="middle" font-size="13px" width="76px" fill="#323232" font-weight="700" align="middle" lineHeight="125%" anchor="middle" family="&quot;Comic Sans MS&quot;" size="13px" weight="700" font-style="" opacity="1" y="10.375" transform="rotate(0)"><tspan id="SvgjsTspan1018" dy="16" x="48"><tspan id="SvgjsTspan1019" style="text-decoration:;">Web </tspan></tspan><tspan id="SvgjsTspan1020" dy="16" x="48"><tspan id="SvgjsTspan1021" style="text-decoration:;">Server</tspan></tspan></text></g></g><g id="SvgjsG1022" transform="translate(501,75)"><path id="SvgjsPath1023" d="M 0 4Q 0 0 4 0L 92 0Q 96 0 96 4L 96 50Q 96 54 92 54L 4 54Q 0 54 0 50Z" stroke="rgba(50,50,50,1)" stroke-width="2" fill-opacity="1" fill="#ffffff"></path><g id="SvgjsG1024"><text id="SvgjsText1025" font-family="&quot;Comic Sans MS&quot;" text-anchor="middle" font-size="13px" width="76px" fill="#323232" font-weight="700" align="middle" lineHeight="125%" anchor="middle" family="&quot;Comic Sans MS&quot;" size="13px" weight="700" font-style="" opacity="1" y="9.375" transform="rotate(0)"><tspan id="SvgjsTspan1026" dy="16" x="48"><tspan id="SvgjsTspan1027" style="text-decoration:;">Message </tspan></tspan><tspan id="SvgjsTspan1028" dy="16" x="48"><tspan id="SvgjsTspan1029" style="text-decoration:;">Consumer</tspan></tspan></text></g></g><g id="SvgjsG1030" transform="translate(364,153)"><path id="SvgjsPath1031" d="M 0 4Q 0 0 4 0L 228.5 0Q 232.5 0 232.5 4L 232.5 52Q 232.5 56 228.5 56L 4 56Q 0 56 0 52Z" stroke="rgba(50,50,50,1)" stroke-width="2" fill-opacity="1" fill="#ffffff"></path><g id="SvgjsG1032"><text id="SvgjsText1033" font-family="&quot;Comic Sans MS&quot;" text-anchor="middle" font-size="13px" width="213px" fill="#323232" font-weight="700" align="middle" lineHeight="125%" anchor="middle" family="&quot;Comic Sans MS&quot;" size="13px" weight="700" font-style="" opacity="1" y="18.375" transform="rotate(0)"><tspan id="SvgjsTspan1034" dy="16" x="116.5"><tspan id="SvgjsTspan1035" style="text-decoration:;">Application Service</tspan></tspan></text></g></g><g id="SvgjsG1036" transform="translate(363.5,230)"><path id="SvgjsPath1037" d="M 0 4Q 0 0 4 0L 229.5 0Q 233.5 0 233.5 4L 233.5 52Q 233.5 56 229.5 56L 4 56Q 0 56 0 52Z" stroke="rgba(50,50,50,1)" stroke-width="2" fill-opacity="1" fill="#0071bc"></path><g id="SvgjsG1038"><text id="SvgjsText1039" font-family="&quot;Comic Sans MS&quot;" text-anchor="middle" font-size="13px" width="214px" fill="#ffffff" font-weight="700" align="middle" lineHeight="125%" anchor="middle" family="&quot;Comic Sans MS&quot;" size="13px" weight="700" font-style="" opacity="1" y="18.375" transform="rotate(0)"><tspan id="SvgjsTspan1040" dy="16" x="117"><tspan id="SvgjsTspan1041" style="text-decoration:;">Domain Service</tspan></tspan></text></g></g><g id="SvgjsG1042" transform="translate(363.5,309)"><path id="SvgjsPath1043" d="M 0 4Q 0 0 4 0L 229.5 0Q 233.5 0 233.5 4L 233.5 53Q 233.5 57 229.5 57L 4 57Q 0 57 0 53Z" stroke="rgba(50,50,50,1)" stroke-width="2" fill-opacity="1" fill="#ffffff"></path><g id="SvgjsG1044"><text id="SvgjsText1045" font-family="&quot;Comic Sans MS&quot;" text-anchor="middle" font-size="13px" width="214px" fill="#323232" font-weight="700" align="middle" lineHeight="125%" anchor="middle" family="&quot;Comic Sans MS&quot;" size="13px" weight="700" font-style="" opacity="1" y="18.875" transform="rotate(0)"><tspan id="SvgjsTspan1046" dy="16" x="117"><tspan id="SvgjsTspan1047" style="text-decoration:;">Repository</tspan></tspan></text></g></g><g id="SvgjsG1048" transform="translate(658.75,106)"><path id="SvgjsPath1049" d="M 38.04 138.6C -31.700000000000003 99 12.68 69.3 28.529999999999998 59.4C 22.19 9.9 101.44 0 133.14 19.8C 158.5 -9.9 237.75 0 237.75 29.7C 301.15 19.8 326.51 59.4 301.15 108.9C 323.34000000000003 148.5 301.15 198 228.23999999999998 178.20000000000002C 212.39000000000001 203.94 148.98999999999998 203.94 133.14 178.20000000000002C 101.44 198 38.04 188.1 38.04 138.6Z" stroke="rgba(50,50,50,1)" stroke-width="2" fill-opacity="1" fill="#ffffff"></path><g id="SvgjsG1050"><text id="SvgjsText1051" font-family="微软雅黑" text-anchor="middle" font-size="13px" width="297px" fill="#323232" font-weight="400" align="middle" lineHeight="125%" anchor="middle" family="微软雅黑" size="13px" weight="400" font-style="" opacity="1" y="89.375" transform="rotate(0)"></text></g></g><g id="SvgjsG1052" transform="translate(729.25,149)"><path id="SvgjsPath1053" d="M 0 4Q 0 0 4 0L 66 0Q 70 0 70 4L 70 37Q 70 41 66 41L 4 41Q 0 41 0 37Z" stroke="rgba(50,50,50,1)" stroke-width="2" fill-opacity="1" fill="#b2d4eb"></path><g id="SvgjsG1054"><text id="SvgjsText1055" font-family="&quot;Comic Sans MS&quot;" text-anchor="middle" font-size="13px" width="50px" fill="#000000" font-weight="700" align="middle" lineHeight="125%" anchor="middle" family="&quot;Comic Sans MS&quot;" size="13px" weight="700" font-style="" opacity="1" y="10.875" transform="rotate(0)"><tspan id="SvgjsTspan1056" dy="16" x="35"><tspan id="SvgjsTspan1057" style="text-decoration:;">Kafka</tspan></tspan></text></g></g><g id="SvgjsG1058" transform="translate(728.25,213.5)"><path id="SvgjsPath1059" d="M 0 4Q 0 0 4 0L 66 0Q 70 0 70 4L 70 37Q 70 41 66 41L 4 41Q 0 41 0 37Z" stroke="rgba(50,50,50,1)" stroke-width="2" fill-opacity="1" fill="#b2d4eb"></path><g id="SvgjsG1060"><text id="SvgjsText1061" font-family="&quot;Comic Sans MS&quot;" text-anchor="middle" font-size="13px" width="50px" fill="#000000" font-weight="700" align="middle" lineHeight="125%" anchor="middle" family="&quot;Comic Sans MS&quot;" size="13px" weight="700" font-style="" opacity="1" y="10.875" transform="rotate(0)"><tspan id="SvgjsTspan1062" dy="16" x="35"><tspan id="SvgjsTspan1063" style="text-decoration:;">Redis</tspan></tspan></text></g></g><g id="SvgjsG1064" transform="translate(823.75,149)"><path id="SvgjsPath1065" d="M 0 4Q 0 0 4 0L 66 0Q 70 0 70 4L 70 37Q 70 41 66 41L 4 41Q 0 41 0 37Z" stroke="rgba(50,50,50,1)" stroke-width="2" fill-opacity="1" fill="#ffffff"></path><g id="SvgjsG1066"><text id="SvgjsText1067" font-family="&quot;Comic Sans MS&quot;" text-anchor="middle" font-size="13px" width="50px" fill="#000000" font-weight="700" align="middle" lineHeight="125%" anchor="middle" family="&quot;Comic Sans MS&quot;" size="13px" weight="700" font-style="" opacity="1" y="10.875" transform="rotate(0)"><tspan id="SvgjsTspan1068" dy="16" x="35"><tspan id="SvgjsTspan1069" style="text-decoration:;">· · ·</tspan></tspan></text></g></g><g id="SvgjsG1070" transform="translate(823.75,213.5)"><path id="SvgjsPath1071" d="M 0 4Q 0 0 4 0L 66 0Q 70 0 70 4L 70 37Q 70 41 66 41L 4 41Q 0 41 0 37Z" stroke="rgba(50,50,50,1)" stroke-width="2" fill-opacity="1" fill="#b2d4eb"></path><g id="SvgjsG1072"><text id="SvgjsText1073" font-family="&quot;Comic Sans MS&quot;" text-anchor="middle" font-size="13px" width="50px" fill="#000000" font-weight="700" align="middle" lineHeight="125%" anchor="middle" family="&quot;Comic Sans MS&quot;" size="13px" weight="700" font-style="" opacity="1" y="10.875" transform="rotate(0)"><tspan id="SvgjsTspan1074" dy="16" x="35"><tspan id="SvgjsTspan1075" style="text-decoration:;">MySQL</tspan></tspan></text></g></g><g id="SvgjsG1076"><path id="SvgjsPath1077" d="M597 337.5L763.25 337.5L763.25 254.5" stroke="#323232" stroke-width="2" fill="none" marker-end="url(#SvgjsMarker1078)"></path></g><g id="SvgjsG1080"><path id="SvgjsPath1081" d="M597 337.5L858.75 337.5L858.75 254.5" stroke="#323232" stroke-width="2" fill="none" marker-end="url(#SvgjsMarker1082)"></path></g><g id="SvgjsG1084"><path id="SvgjsPath1085" d="M597 102L764.25 102L764.25 149" stroke="#323232" stroke-width="2" fill="none" marker-end="url(#SvgjsMarker1086)"></path></g><g id="SvgjsG1088" transform="translate(25,111)"><path id="SvgjsPath1089" d="M 0 4Q 0 0 4 0L 86 0Q 90 0 90 4L 90 189Q 90 193 86 193L 4 193Q 0 193 0 189Z" stroke="rgba(50,50,50,1)" stroke-width="2" fill-opacity="1" fill="#fddfbb"></path><g id="SvgjsG1090"><text id="SvgjsText1091" font-family="微软雅黑" text-anchor="middle" font-size="13px" width="70px" fill="#323232" font-weight="700" align="middle" lineHeight="125%" anchor="middle" family="微软雅黑" size="13px" weight="700" font-style="" opacity="1" y="86.875" transform="rotate(0)"><tspan id="SvgjsTspan1092" dy="16" x="45"><tspan id="SvgjsTspan1093" style="text-decoration:;">第三方系统</tspan></tspan></text></g></g><g id="SvgjsG1094" transform="translate(182,244)"><path id="SvgjsPath1095" d="M 0 4Q 0 0 4 0L 97.49999999999994 0Q 101.49999999999994 0 101.49999999999994 4L 101.49999999999994 56Q 101.49999999999994 60 97.49999999999994 60L 4 60Q 0 60 0 56Z" stroke="rgba(50,50,50,1)" stroke-width="2" fill-opacity="1" fill="#b2d4eb"></path><g id="SvgjsG1096"><text id="SvgjsText1097" font-family="&quot;Comic Sans MS&quot;" text-anchor="middle" font-size="13px" width="82px" fill="#000000" font-weight="700" align="middle" lineHeight="125%" anchor="middle" family="&quot;Comic Sans MS&quot;" size="13px" weight="700" font-style="" opacity="1" y="20.375" transform="rotate(0)"><tspan id="SvgjsTspan1098" dy="16" x="51"><tspan id="SvgjsTspan1099" style="text-decoration:;">iot-adapter</tspan></tspan></text></g></g><g id="SvgjsG1100" transform="translate(182.25,111)"><path id="SvgjsPath1101" d="M 0 4Q 0 0 4 0L 96.99999999999994 0Q 100.99999999999994 0 100.99999999999994 4L 100.99999999999994 56Q 100.99999999999994 60 96.99999999999994 60L 4 60Q 0 60 0 56Z" stroke="rgba(50,50,50,1)" stroke-width="2" fill-opacity="1" fill="#b2d4eb"></path><g id="SvgjsG1102"><text id="SvgjsText1103" font-family="&quot;Comic Sans MS&quot;" text-anchor="middle" font-size="13px" width="81px" fill="#000000" font-weight="700" align="middle" lineHeight="125%" anchor="middle" family="&quot;Comic Sans MS&quot;" size="13px" weight="700" font-style="" opacity="1" y="20.375" transform="rotate(0)"><tspan id="SvgjsTspan1104" dy="16" x="50.5"><tspan id="SvgjsTspan1105" style="text-decoration:;">api-adapter</tspan></tspan></text></g></g><g id="SvgjsG1106"><path id="SvgjsPath1107" d="M283.25 141L312.125 141L312.125 141L341 141" stroke="#323232" stroke-width="2" fill="none" marker-end="url(#SvgjsMarker1108)"></path></g><g id="SvgjsG1110"><path id="SvgjsPath1111" d="M283.5 274L312.25 274L312.25 274L341 274" stroke="#323232" stroke-width="2" fill="none" marker-end="url(#SvgjsMarker1112)"></path></g><g id="SvgjsG1114"><path id="SvgjsPath1115" d="M114 141L148.125 141L148.125 141L182.25 141" stroke="#323232" stroke-width="2" fill="none" marker-end="url(#SvgjsMarker1116)"></path></g><g id="SvgjsG1118"><path id="SvgjsPath1119" d="M115 274L148.5 274L148.5 274L182 274" stroke="#323232" stroke-width="2" fill="none" marker-end="url(#SvgjsMarker1120)"></path></g></svg>