<svg id="SvgjsSvg1044" width="656" height="547" xmlns="http://www.w3.org/2000/svg" version="1.1" xmlns:xlink="http://www.w3.org/1999/xlink" xmlns:svgjs="http://svgjs.com/svgjs"><defs id="SvgjsDefs1045"></defs><g id="SvgjsG1046" transform="translate(25,100)"><path id="SvgjsPath1047" d="M 0 211C 0 -70.33333333333333 606 -70.33333333333333 606 211C 606 492.3333333333333 0 492.3333333333333 0 211Z" stroke="rgba(50,50,50,1)" stroke-width="2" fill-opacity="1" fill="#ffffff"></path><g id="SvgjsG1048"><text id="SvgjsText1049" font-family="微软雅黑" text-anchor="middle" font-size="13px" width="586px" fill="#323232" font-weight="400" align="middle" lineHeight="125%" anchor="middle" family="微软雅黑" size="13px" weight="400" font-style="" opacity="1" y="201.375" transform="rotate(0)"></text></g></g><g id="SvgjsG1050"><path id="SvgjsPath1051" d="M328 522C 328 402 354 389 328 324" stroke-dasharray="8,5" stroke="#323232" stroke-width="2" fill="none"></path></g><g id="SvgjsG1052"><path id="SvgjsPath1053" d="M115.01503505445731 156.73406431002294C 212 203 237 271 330 325" stroke-dasharray="8,5" stroke="#323232" stroke-width="2" fill="none"></path></g><g id="SvgjsG1054"><path id="SvgjsPath1055" d="M514.8869086912965 141.53153893518325C 480 297 403.35476347651866 251.01261557407327 329 324" stroke-dasharray="8,5" stroke="#323232" stroke-width="2" fill="none"></path></g><g id="SvgjsG1056" transform="translate(69,310)"><path id="SvgjsPath1057" d="M 0 0L 179 0L 179 66L 0 66Z" stroke="none" fill="none"></path><g id="SvgjsG1058"><text id="SvgjsText1059" font-family="微软雅黑" text-anchor="middle" font-size="16px" width="179px" fill="#323232" font-weight="400" align="middle" lineHeight="125%" anchor="middle" family="微软雅黑" size="16px" weight="400" font-style="" opacity="1" y="11" transform="rotate(0)"><tspan id="SvgjsTspan1060" dy="20" x="89.5"><tspan id="SvgjsTspan1061" style="text-decoration:;">模组入网能力</tspan><tspan id="SvgjsTspan1062" style="text-decoration:;font-size: inherit;">提供商领域</tspan></tspan><tspan id="SvgjsTspan1063" dy="20" x="89.5"><tspan id="SvgjsTspan1064" style="text-decoration:;font-size: inherit;">isp domain</tspan></tspan></text></g></g><g id="SvgjsG1065" transform="translate(193,25)"><path id="SvgjsPath1066" d="M 0 0L 270 0L 270 58L 0 58Z" stroke="none" fill="none"></path><g id="SvgjsG1067"><text id="SvgjsText1068" font-family="微软雅黑" text-anchor="middle" font-size="20px" width="270px" fill="#323232" font-weight="700" align="middle" lineHeight="125%" anchor="middle" family="微软雅黑" size="20px" weight="700" font-style="" opacity="1" y="14" transform="rotate(0)"><tspan id="SvgjsTspan1069" dy="25" x="135"><tspan id="SvgjsTspan1070" style="text-decoration:;">NB 设备通讯管理领域</tspan></tspan></text></g></g><g id="SvgjsG1071" transform="translate(249.5,158)"><path id="SvgjsPath1072" d="M 0 0L 157 0L 157 67L 0 67Z" stroke="none" fill="none"></path><g id="SvgjsG1073"><text id="SvgjsText1074" font-family="微软雅黑" text-anchor="middle" font-size="16px" width="157px" fill="#323232" font-weight="400" align="middle" lineHeight="125%" anchor="middle" family="微软雅黑" size="16px" weight="400" font-style="" opacity="1" y="11.5" transform="rotate(0)"><tspan id="SvgjsTspan1075" dy="20" x="78.5"><tspan id="SvgjsTspan1076" style="text-decoration:;">协调服务领域</tspan></tspan><tspan id="SvgjsTspan1077" dy="20" x="78.5"><tspan id="SvgjsTspan1078" style="text-decoration:;">harmonia domain</tspan></tspan></text></g></g><g id="SvgjsG1079" transform="translate(385,309.5)"><path id="SvgjsPath1080" d="M 0 0L 210 0L 210 67L 0 67Z" stroke="none" fill="none"></path><g id="SvgjsG1081"><text id="SvgjsText1082" font-family="微软雅黑" text-anchor="middle" font-size="16px" width="210px" fill="#323232" font-weight="400" align="middle" lineHeight="125%" anchor="middle" family="微软雅黑" size="16px" weight="400" font-style="" opacity="1" y="11.5" transform="rotate(0)"><tspan id="SvgjsTspan1083" dy="20" x="105"><tspan id="SvgjsTspan1084" style="text-decoration:;">设备数据传输领域</tspan></tspan><tspan id="SvgjsTspan1085" dy="20" x="105"><tspan id="SvgjsTspan1086" style="text-decoration:;">tb-http-transport domain</tspan></tspan></text></g></g></svg>