<svg id="SvgjsSvg1634" width="797.5" height="247" xmlns="http://www.w3.org/2000/svg" version="1.1" xmlns:xlink="http://www.w3.org/1999/xlink" xmlns:svgjs="http://svgjs.com/svgjs"><defs id="SvgjsDefs1635"><marker id="SvgjsMarker1644" markerWidth="16" markerHeight="12" refX="16" refY="6" viewBox="0 0 16 12" orient="auto" markerUnits="userSpaceOnUse" stroke-dasharray="0,0"><path id="SvgjsPath1645" d="M0,2 L14,6 L0,11 L0,2" fill="#323232" stroke="#323232" stroke-width="2"></path></marker><marker id="SvgjsMarker1654" markerWidth="16" markerHeight="12" refX="16" refY="6" viewBox="0 0 16 12" orient="auto" markerUnits="userSpaceOnUse" stroke-dasharray="0,0"><path id="SvgjsPath1655" d="M0,2 L14,6 L0,11 L0,2" fill="#323232" stroke="#323232" stroke-width="2"></path></marker><marker id="SvgjsMarker1674" markerWidth="16" markerHeight="12" refX="16" refY="6" viewBox="0 0 16 12" orient="auto" markerUnits="userSpaceOnUse" stroke-dasharray="0,0"><path id="SvgjsPath1675" d="M0,2 L14,6 L0,11 L0,2" fill="#323232" stroke="#323232" stroke-width="2"></path></marker><marker id="SvgjsMarker1694" markerWidth="16" markerHeight="12" refX="16" refY="6" viewBox="0 0 16 12" orient="auto" markerUnits="userSpaceOnUse" stroke-dasharray="0,0"><path id="SvgjsPath1695" d="M0,2 L14,6 L0,11 L0,2" fill="#323232" stroke="#323232" stroke-width="2"></path></marker><marker id="SvgjsMarker1698" markerWidth="16" markerHeight="12" refX="16" refY="6" viewBox="0 0 16 12" orient="auto" markerUnits="userSpaceOnUse" stroke-dasharray="0,0"><path id="SvgjsPath1699" d="M0,2 L14,6 L0,11 L0,2" fill="#323232" stroke="#323232" stroke-width="2"></path></marker><marker id="SvgjsMarker1716" markerWidth="16" markerHeight="12" refX="16" refY="6" viewBox="0 0 16 12" orient="auto" markerUnits="userSpaceOnUse" stroke-dasharray="0,0"><path id="SvgjsPath1717" d="M0,2 L14,6 L0,11 L0,2" fill="#323232" stroke="#323232" stroke-width="2"></path></marker><marker id="SvgjsMarker1730" markerWidth="16" markerHeight="12" refX="16" refY="6" viewBox="0 0 16 12" orient="auto" markerUnits="userSpaceOnUse" stroke-dasharray="0,0"><path id="SvgjsPath1731" d="M0,2 L14,6 L0,11 L0,2" fill="#323232" stroke="#323232" stroke-width="2"></path></marker></defs><g id="SvgjsG1636" transform="translate(25,35)"><path id="SvgjsPath1637" d="M 16.666666666666668 0L 83.33333333333333 0C 105.55555555555556 0 105.55555555555556 50 83.33333333333333 50L 16.666666666666668 50C -5.555555555555556 50 -5.555555555555556 0 16.666666666666668 0Z" stroke="rgba(50,50,50,1)" stroke-width="2" fill-opacity="1" fill="#ffffff"></path><g id="SvgjsG1638"><text id="SvgjsText1639" font-family="微软雅黑" text-anchor="middle" font-size="13px" width="80px" fill="#323232" font-weight="400" align="middle" lineHeight="125%" anchor="middle" family="微软雅黑" size="13px" weight="400" font-style="" opacity="1" y="15.375" transform="rotate(0)"><tspan id="SvgjsTspan1640" dy="16" x="50"><tspan id="SvgjsTspan1641" style="text-decoration:;">配额变更请求</tspan></tspan></text></g></g><g id="SvgjsG1642"><path id="SvgjsPath1643" d="M125 60L155.9375 60L155.9375 60L186.875 60" stroke="#323232" stroke-width="2" fill="none" marker-end="url(#SvgjsMarker1644)"></path></g><g id="SvgjsG1646" transform="translate(186.875,25)"><path id="SvgjsPath1647" d="M 0 0L 100 0L 100 70L 0 70Z" stroke="rgba(50,50,50,1)" stroke-width="2" fill-opacity="1" fill="#ffffff"></path><g id="SvgjsG1648"><text id="SvgjsText1649" font-family="微软雅黑" text-anchor="middle" font-size="13px" width="80px" fill="#323232" font-weight="400" align="middle" lineHeight="125%" anchor="middle" family="微软雅黑" size="13px" weight="400" font-style="" opacity="1" y="25.375" transform="rotate(0)"><tspan id="SvgjsTspan1650" dy="16" x="50"><tspan id="SvgjsTspan1651" style="text-decoration:;">获取资源配额</tspan></tspan></text></g></g><g id="SvgjsG1652"><path id="SvgjsPath1653" d="M286.875 60L317.8125 60L317.8125 60L348.75 60" stroke="#323232" stroke-width="2" fill="none" marker-end="url(#SvgjsMarker1654)"></path></g><g id="SvgjsG1656" transform="translate(348.75,25)"><path id="SvgjsPath1657" d="M 0 0L 100 0L 100 70L 0 70Z" stroke="rgba(50,50,50,1)" stroke-width="2" fill-opacity="1" fill="#ffffff"></path><g id="SvgjsG1658"><text id="SvgjsText1659" font-family="微软雅黑" text-anchor="middle" font-size="13px" width="80px" fill="#323232" font-weight="400" align="middle" lineHeight="125%" anchor="middle" family="微软雅黑" size="13px" weight="400" font-style="" opacity="1" y="17.375" transform="rotate(0)"><tspan id="SvgjsTspan1660" dy="16" x="50"><tspan id="SvgjsTspan1661" style="text-decoration:;">按照请求修改</tspan></tspan><tspan id="SvgjsTspan1662" dy="16" x="50"><tspan id="SvgjsTspan1663" style="text-decoration:;">配额阈值</tspan></tspan></text></g></g><g id="SvgjsG1664" transform="translate(515.625,25)"><path id="SvgjsPath1665" d="M 0 35L 45 0L 90 35L 45 70L 0 35Z" stroke="rgba(50,50,50,1)" stroke-width="2" fill-opacity="1" fill="#ffffff"></path><g id="SvgjsG1666"><text id="SvgjsText1667" font-family="微软雅黑" text-anchor="middle" font-size="13px" width="70px" fill="#323232" font-weight="400" align="middle" lineHeight="125%" anchor="middle" family="微软雅黑" size="13px" weight="400" font-style="" opacity="1" y="17.375" transform="rotate(0)"><tspan id="SvgjsTspan1668" dy="16" x="45"><tspan id="SvgjsTspan1669" style="text-decoration:;">是否修改成</tspan></tspan><tspan id="SvgjsTspan1670" dy="16" x="45"><tspan id="SvgjsTspan1671" style="text-decoration:;">功？</tspan></tspan></text></g></g><g id="SvgjsG1672"><path id="SvgjsPath1673" d="M448.75 60L482.1875 60L482.1875 60L515.625 60" stroke="#323232" stroke-width="2" fill="none" marker-end="url(#SvgjsMarker1674)"></path></g><g id="SvgjsG1676" transform="translate(672.5,25)"><path id="SvgjsPath1677" d="M 0 0L 100 0L 100 70L 0 70Z" stroke="rgba(50,50,50,1)" stroke-width="2" fill-opacity="1" fill="#ffffff"></path><g id="SvgjsG1678"><text id="SvgjsText1679" font-family="微软雅黑" text-anchor="middle" font-size="13px" width="80px" fill="#323232" font-weight="400" align="middle" lineHeight="125%" anchor="middle" family="微软雅黑" size="13px" weight="400" font-style="" opacity="1" y="9.375" transform="rotate(0)"><tspan id="SvgjsTspan1680" dy="16" x="50"><tspan id="SvgjsTspan1681" style="text-decoration:;">发布「配额已</tspan></tspan><tspan id="SvgjsTspan1682" dy="16" x="50"><tspan id="SvgjsTspan1683" style="text-decoration:;">变更」领域事</tspan></tspan><tspan id="SvgjsTspan1684" dy="16" x="50"><tspan id="SvgjsTspan1685" style="text-decoration:;">件</tspan></tspan></text></g></g><g id="SvgjsG1686" transform="translate(672.5,162)"><path id="SvgjsPath1687" d="M 16.666666666666668 0L 83.33333333333333 0C 105.55555555555556 0 105.55555555555556 50 83.33333333333333 50L 16.666666666666668 50C -5.555555555555556 50 -5.555555555555556 0 16.666666666666668 0Z" stroke="rgba(50,50,50,1)" stroke-width="2" fill-opacity="1" fill="#ffffff"></path><g id="SvgjsG1688"><text id="SvgjsText1689" font-family="微软雅黑" text-anchor="middle" font-size="13px" width="80px" fill="#323232" font-weight="400" align="middle" lineHeight="125%" anchor="middle" family="微软雅黑" size="13px" weight="400" font-style="" opacity="1" y="15.375" transform="rotate(0)"><tspan id="SvgjsTspan1690" dy="16" x="50"><tspan id="SvgjsTspan1691" style="text-decoration:;">配额变更完成</tspan></tspan></text></g></g><g id="SvgjsG1692"><path id="SvgjsPath1693" d="M722.5 95L722.5 128.5L722.5 128.5L722.5 162" stroke="#323232" stroke-width="2" fill="none" marker-end="url(#SvgjsMarker1694)"></path></g><g id="SvgjsG1696"><path id="SvgjsPath1697" d="M605.625 60L639.0625 60L639.0625 60L672.5 60" stroke="#323232" stroke-width="2" fill="none" marker-end="url(#SvgjsMarker1698)"></path><rect id="SvgjsRect1700" width="13" height="16" x="632.5625" y="52" fill="#ffffff"></rect><text id="SvgjsText1701" font-family="微软雅黑" text-anchor="middle" font-size="13px" width="13px" fill="#323232" font-weight="400" align="top" lineHeight="16px" anchor="middle" family="微软雅黑" size="13px" weight="400" font-style="" opacity="1" y="50.375" transform="rotate(0)"><tspan id="SvgjsTspan1702" dy="16" x="639.0625"><tspan id="SvgjsTspan1703" style="text-decoration:;">是</tspan></tspan></text></g><g id="SvgjsG1704" transform="translate(510.625,152)"><path id="SvgjsPath1705" d="M 0 0L 100 0L 100 70L 0 70Z" stroke="rgba(50,50,50,1)" stroke-width="2" fill-opacity="1" fill="#ffffff"></path><g id="SvgjsG1706"><text id="SvgjsText1707" font-family="微软雅黑" text-anchor="middle" font-size="13px" width="80px" fill="#323232" font-weight="400" align="middle" lineHeight="125%" anchor="middle" family="微软雅黑" size="13px" weight="400" font-style="" opacity="1" y="9.375" transform="rotate(0)"><tspan id="SvgjsTspan1708" dy="16" x="50"><tspan id="SvgjsTspan1709" style="text-decoration:;">发布「配额变</tspan></tspan><tspan id="SvgjsTspan1710" dy="16" x="50"><tspan id="SvgjsTspan1711" style="text-decoration:;">更失败」领域</tspan></tspan><tspan id="SvgjsTspan1712" dy="16" x="50"><tspan id="SvgjsTspan1713" style="text-decoration:;">事件</tspan></tspan></text></g></g><g id="SvgjsG1714"><path id="SvgjsPath1715" d="M560.625 95L560.625 123.5L560.625 123.5L560.625 152" stroke="#323232" stroke-width="2" fill="none" marker-end="url(#SvgjsMarker1716)"></path><rect id="SvgjsRect1718" width="13" height="16" x="554.125" y="115.5" fill="#ffffff"></rect><text id="SvgjsText1719" font-family="微软雅黑" text-anchor="middle" font-size="13px" width="13px" fill="#323232" font-weight="400" align="top" lineHeight="16px" anchor="middle" family="微软雅黑" size="13px" weight="400" font-style="" opacity="1" y="113.875" transform="rotate(0)"><tspan id="SvgjsTspan1720" dy="16" x="560.625"><tspan id="SvgjsTspan1721" style="text-decoration:;">否</tspan></tspan></text></g><g id="SvgjsG1722" transform="translate(348.75,162)"><path id="SvgjsPath1723" d="M 16.666666666666668 0L 83.33333333333333 0C 105.55555555555556 0 105.55555555555556 50 83.33333333333333 50L 16.666666666666668 50C -5.555555555555556 50 -5.555555555555556 0 16.666666666666668 0Z" stroke="rgba(50,50,50,1)" stroke-width="2" fill-opacity="1" fill="#ffffff"></path><g id="SvgjsG1724"><text id="SvgjsText1725" font-family="微软雅黑" text-anchor="middle" font-size="13px" width="80px" fill="#323232" font-weight="400" align="middle" lineHeight="125%" anchor="middle" family="微软雅黑" size="13px" weight="400" font-style="" opacity="1" y="15.375" transform="rotate(0)"><tspan id="SvgjsTspan1726" dy="16" x="50"><tspan id="SvgjsTspan1727" style="text-decoration:;">配额变更失败</tspan></tspan></text></g></g><g id="SvgjsG1728"><path id="SvgjsPath1729" d="M510.625 187L479.6875 187L479.6875 187L448.75 187" stroke="#323232" stroke-width="2" fill="none" marker-end="url(#SvgjsMarker1730)"></path></g></svg>