<svg id="SvgjsSvg1006" width="619" height="719" xmlns="http://www.w3.org/2000/svg" version="1.1" xmlns:xlink="http://www.w3.org/1999/xlink" xmlns:svgjs="http://svgjs.com/svgjs"><defs id="SvgjsDefs1007"></defs><g id="SvgjsG1008" transform="translate(25,215)"><path id="SvgjsPath1009" d="M 0 39.5C 0 -13.166666666666666 114 -13.166666666666666 114 39.5C 114 92.16666666666667 0 92.16666666666667 0 39.5Z" stroke="rgba(50,50,50,1)" stroke-width="2" fill-opacity="1" fill="#ffffff"></path><g id="SvgjsG1010"><text id="SvgjsText1011" font-family="微软雅黑" text-anchor="middle" font-size="13px" width="94px" fill="#323232" font-weight="400" align="middle" lineHeight="125%" anchor="middle" family="微软雅黑" size="13px" weight="400" font-style="" opacity="1" y="29.875" transform="rotate(0)"><tspan id="SvgjsTspan1012" dy="16" x="57"><tspan id="SvgjsTspan1013" style="text-decoration:;">安全审计上下文</tspan></tspan></text></g></g><g id="SvgjsG1014" transform="translate(480,435.5)"><path id="SvgjsPath1015" d="M 0 39.5C 0 -13.166666666666666 114 -13.166666666666666 114 39.5C 114 92.16666666666667 0 92.16666666666667 0 39.5Z" stroke="rgba(50,50,50,1)" stroke-width="2" fill-opacity="1" fill="#ffffff"></path><g id="SvgjsG1016"><text id="SvgjsText1017" font-family="微软雅黑" text-anchor="middle" font-size="13px" width="94px" fill="#323232" font-weight="400" align="middle" lineHeight="125%" anchor="middle" family="微软雅黑" size="13px" weight="400" font-style="" opacity="1" y="29.875" transform="rotate(0)"><tspan id="SvgjsTspan1018" dy="16" x="57"><tspan id="SvgjsTspan1019" style="text-decoration:;">资源</tspan><tspan id="SvgjsTspan1020" style="text-decoration:;font-size: inherit;">上下文</tspan></tspan></text></g></g><g id="SvgjsG1021" transform="translate(25,434)"><path id="SvgjsPath1022" d="M 0 39.5C 0 -13.166666666666666 114 -13.166666666666666 114 39.5C 114 92.16666666666667 0 92.16666666666667 0 39.5Z" stroke="rgba(50,50,50,1)" stroke-width="2" fill-opacity="1" fill="#ffffff"></path><g id="SvgjsG1023"><text id="SvgjsText1024" font-family="微软雅黑" text-anchor="middle" font-size="13px" width="94px" fill="#323232" font-weight="400" align="middle" lineHeight="125%" anchor="middle" family="微软雅黑" size="13px" weight="400" font-style="" opacity="1" y="29.875" transform="rotate(0)"><tspan id="SvgjsTspan1025" dy="16" x="57"><tspan id="SvgjsTspan1026" style="text-decoration:;">用户上下文</tspan></tspan></text></g></g><g id="SvgjsG1027" transform="translate(265,215)"><path id="SvgjsPath1028" d="M 0 39.5C 0 -13.166666666666666 114 -13.166666666666666 114 39.5C 114 92.16666666666667 0 92.16666666666667 0 39.5Z" stroke="rgba(50,50,50,1)" stroke-width="2" fill-opacity="1" fill="#ffffff"></path><g id="SvgjsG1029"><text id="SvgjsText1030" font-family="微软雅黑" text-anchor="middle" font-size="13px" width="94px" fill="#323232" font-weight="400" align="middle" lineHeight="125%" anchor="middle" family="微软雅黑" size="13px" weight="400" font-style="" opacity="1" y="29.875" transform="rotate(0)"><tspan id="SvgjsTspan1031" dy="16" x="57"><tspan id="SvgjsTspan1032" style="text-decoration:;">订单上下文</tspan></tspan></text></g></g><g id="SvgjsG1033" transform="translate(265,435.5)"><path id="SvgjsPath1034" d="M 0 39.5C 0 -13.166666666666666 114 -13.166666666666666 114 39.5C 114 92.16666666666667 0 92.16666666666667 0 39.5Z" stroke="rgba(50,50,50,1)" stroke-width="2" fill-opacity="1" fill="#ffffff"></path><g id="SvgjsG1035"><text id="SvgjsText1036" font-family="微软雅黑" text-anchor="middle" font-size="13px" width="94px" fill="#323232" font-weight="400" align="middle" lineHeight="125%" anchor="middle" family="微软雅黑" size="13px" weight="400" font-style="" opacity="1" y="29.875" transform="rotate(0)"><tspan id="SvgjsTspan1037" dy="16" x="57"><tspan id="SvgjsTspan1038" style="text-decoration:;">资源配额上下文</tspan></tspan></text></g></g><g id="SvgjsG1039" transform="translate(265,615)"><path id="SvgjsPath1040" d="M 0 39.5C 0 -13.166666666666666 114 -13.166666666666666 114 39.5C 114 92.16666666666667 0 92.16666666666667 0 39.5Z" stroke="rgba(50,50,50,1)" stroke-width="2" fill-opacity="1" fill="#ffffff"></path><g id="SvgjsG1041"><text id="SvgjsText1042" font-family="微软雅黑" text-anchor="middle" font-size="13px" width="94px" fill="#323232" font-weight="400" align="middle" lineHeight="125%" anchor="middle" family="微软雅黑" size="13px" weight="400" font-style="" opacity="1" y="21.875" transform="rotate(0)"><tspan id="SvgjsTspan1043" dy="16" x="57"><tspan id="SvgjsTspan1044" style="text-decoration:;">资源使用上下文</tspan></tspan><tspan id="SvgjsTspan1045" dy="16" x="57"><tspan id="SvgjsTspan1046" style="text-decoration:;">（外部）</tspan></tspan></text></g></g><g id="SvgjsG1047" transform="translate(265,25)"><path id="SvgjsPath1048" d="M 0 39.5C 0 -13.166666666666666 114 -13.166666666666666 114 39.5C 114 92.16666666666667 0 92.16666666666667 0 39.5Z" stroke="rgba(50,50,50,1)" stroke-width="2" fill-opacity="1" fill="#ffffff"></path><g id="SvgjsG1049"><text id="SvgjsText1050" font-family="微软雅黑" text-anchor="middle" font-size="13px" width="94px" fill="#323232" font-weight="400" align="middle" lineHeight="125%" anchor="middle" family="微软雅黑" size="13px" weight="400" font-style="" opacity="1" y="21.875" transform="rotate(0)"><tspan id="SvgjsTspan1051" dy="16" x="57"><tspan id="SvgjsTspan1052" style="text-decoration:;">支付上下文</tspan></tspan><tspan id="SvgjsTspan1053" dy="16" x="57"><tspan id="SvgjsTspan1054" style="text-decoration:;">（外部）</tspan></tspan></text></g></g><g id="SvgjsG1055" transform="translate(62.5,280)"><path id="SvgjsPath1056" d="M 0 0L 39 0L 39 23L 0 23Z" stroke="rgba(50,50,50,1)" stroke-width="2" fill-opacity="1" fill="#b2d4eb"></path><g id="SvgjsG1057"><text id="SvgjsText1058" font-family="微软雅黑" text-anchor="middle" font-size="13px" width="19px" fill="#323232" font-weight="400" align="middle" lineHeight="125%" anchor="middle" family="微软雅黑" size="13px" weight="400" font-style="" opacity="1" y="1.875" transform="rotate(0)"><tspan id="SvgjsTspan1059" dy="16" x="19.5"><tspan id="SvgjsTspan1060" style="text-decoration:;">PS</tspan></tspan></text></g></g><g id="SvgjsG1061" transform="translate(62.5,424)"><path id="SvgjsPath1062" d="M 0 0L 39 0L 39 23L 0 23Z" stroke="rgba(50,50,50,1)" stroke-width="2" fill-opacity="1" fill="#b2d4eb"></path><g id="SvgjsG1063"><text id="SvgjsText1064" font-family="微软雅黑" text-anchor="middle" font-size="13px" width="19px" fill="#323232" font-weight="400" align="middle" lineHeight="125%" anchor="middle" family="微软雅黑" size="13px" weight="400" font-style="" opacity="1" y="1.875" transform="rotate(0)"><tspan id="SvgjsTspan1065" dy="16" x="19.5"><tspan id="SvgjsTspan1066" style="text-decoration:;">PS</tspan></tspan></text></g></g><g id="SvgjsG1067" transform="translate(517.5,424)"><path id="SvgjsPath1068" d="M 0 0L 39 0L 39 23L 0 23Z" stroke="rgba(50,50,50,1)" stroke-width="2" fill-opacity="1" fill="#b2d4eb"></path><g id="SvgjsG1069"><text id="SvgjsText1070" font-family="微软雅黑" text-anchor="middle" font-size="13px" width="19px" fill="#323232" font-weight="400" align="middle" lineHeight="125%" anchor="middle" family="微软雅黑" size="13px" weight="400" font-style="" opacity="1" y="1.875" transform="rotate(0)"><tspan id="SvgjsTspan1071" dy="16" x="19.5"><tspan id="SvgjsTspan1072" style="text-decoration:;">PS</tspan></tspan></text></g></g><g id="SvgjsG1073"><path id="SvgjsPath1074" d="M82 303L82 424" stroke="#323232" stroke-width="2" fill="none"></path></g><g id="SvgjsG1075" transform="translate(302.5,280)"><path id="SvgjsPath1076" d="M 0 0L 39 0L 39 23L 0 23Z" stroke="rgba(50,50,50,1)" stroke-width="2" fill-opacity="1" fill="#b2d4eb"></path><g id="SvgjsG1077"><text id="SvgjsText1078" font-family="微软雅黑" text-anchor="middle" font-size="13px" width="19px" fill="#323232" font-weight="400" align="middle" lineHeight="125%" anchor="middle" family="微软雅黑" size="13px" weight="400" font-style="" opacity="1" y="1.875" transform="rotate(0)"><tspan id="SvgjsTspan1079" dy="16" x="19.5"><tspan id="SvgjsTspan1080" style="text-decoration:;">PS</tspan></tspan></text></g></g><g id="SvgjsG1081"><path id="SvgjsPath1082" d="M101.5 291.5L302.5 291.5" stroke="#323232" stroke-width="2" fill="none"></path></g><g id="SvgjsG1083" transform="translate(302.5,424)"><path id="SvgjsPath1084" d="M 0 0L 39 0L 39 23L 0 23Z" stroke="rgba(50,50,50,1)" stroke-width="2" fill-opacity="1" fill="#b2d4eb"></path><g id="SvgjsG1085"><text id="SvgjsText1086" font-family="微软雅黑" text-anchor="middle" font-size="13px" width="19px" fill="#323232" font-weight="400" align="middle" lineHeight="125%" anchor="middle" family="微软雅黑" size="13px" weight="400" font-style="" opacity="1" y="1.875" transform="rotate(0)"><tspan id="SvgjsTspan1087" dy="16" x="19.5"><tspan id="SvgjsTspan1088" style="text-decoration:;">PS</tspan></tspan></text></g></g><g id="SvgjsG1089"><path id="SvgjsPath1090" d="M100.29289321881356 301.29289321881333L302.5980762113534 425.5" stroke="#323232" stroke-width="2" fill="none"></path></g><g id="SvgjsG1091"><path id="SvgjsPath1092" d="M322 303L322 424" stroke="#323232" stroke-width="2" fill="none"></path></g><g id="SvgjsG1093"><path id="SvgjsPath1094" d="M101.5 435.5L302.5 435.5" stroke="#323232" stroke-width="2" fill="none"></path></g><g id="SvgjsG1095"><path id="SvgjsPath1096" d="M341.5 435.5L517.5 435.5" stroke="#323232" stroke-width="2" fill="none"></path></g><g id="SvgjsG1097"><path id="SvgjsPath1098" d="M338.426423563649 301.180847955711L519.958327832185 424.34415450925644" stroke="#323232" stroke-width="2" fill="none"></path></g><g id="SvgjsG1099" transform="translate(299.25,201)"><path id="SvgjsPath1100" d="M 0 0L 45.5 0L 45.5 23L 0 23Z" stroke="rgba(50,50,50,1)" stroke-width="2" fill-opacity="1" fill="#fddfbb"></path><g id="SvgjsG1101"><text id="SvgjsText1102" font-family="微软雅黑" text-anchor="middle" font-size="13px" width="26px" fill="#323232" font-weight="400" align="middle" lineHeight="125%" anchor="middle" family="微软雅黑" size="13px" weight="400" font-style="" opacity="1" y="1.875" transform="rotate(0)"><tspan id="SvgjsTspan1103" dy="16" x="23"><tspan id="SvgjsTspan1104" style="text-decoration:;">ACL</tspan></tspan></text></g></g><g id="SvgjsG1105"><path id="SvgjsPath1106" d="M322 201L322 115.5" stroke="#323232" stroke-width="2" fill="none"></path></g><g id="SvgjsG1107" transform="translate(287.25,91.5)"><path id="SvgjsPath1108" d="M 0 0L 69.5 0L 69.5 24L 0 24Z" stroke="rgba(50,50,50,1)" stroke-width="2" fill-opacity="1" fill="#fddfbb"></path><g id="SvgjsG1109"><text id="SvgjsText1110" font-family="微软雅黑" text-anchor="middle" font-size="13px" width="50px" fill="#323232" font-weight="400" align="middle" lineHeight="125%" anchor="middle" family="微软雅黑" size="13px" weight="400" font-style="" opacity="1" y="2.375" transform="rotate(0)"><tspan id="SvgjsTspan1111" dy="16" x="35"><tspan id="SvgjsTspan1112" style="text-decoration:;">OHS/PL</tspan></tspan></text></g></g><g id="SvgjsG1113" transform="translate(297.25,504)"><path id="SvgjsPath1114" d="M 0 0L 48.5 0L 48.5 22L 0 22Z" stroke="rgba(50,50,50,1)" stroke-width="2" fill-opacity="1" fill="#fddfbb"></path><g id="SvgjsG1115"><text id="SvgjsText1116" font-family="微软雅黑" text-anchor="middle" font-size="13px" width="29px" fill="#323232" font-weight="400" align="middle" lineHeight="125%" anchor="middle" family="微软雅黑" size="13px" weight="400" font-style="" opacity="1" y="1.375" transform="rotate(0)"><tspan id="SvgjsTspan1117" dy="16" x="24.5"><tspan id="SvgjsTspan1118" style="text-decoration:;">CSD</tspan></tspan></text></g></g><g id="SvgjsG1119"><path id="SvgjsPath1120" d="M321.5 526L321.5 605.5" stroke="#323232" stroke-width="2" fill="none"></path></g><g id="SvgjsG1121" transform="translate(298.1875,605.5)"><path id="SvgjsPath1122" d="M 0 0L 46.625 0L 46.625 21L 0 21Z" stroke="rgba(50,50,50,1)" stroke-width="2" fill-opacity="1" fill="#fddfbb"></path><g id="SvgjsG1123"><text id="SvgjsText1124" font-family="微软雅黑" text-anchor="middle" font-size="13px" width="27px" fill="#323232" font-weight="400" align="middle" lineHeight="125%" anchor="middle" family="微软雅黑" size="13px" weight="400" font-style="" opacity="1" y="0.875" transform="rotate(0)"><tspan id="SvgjsTspan1125" dy="16" x="23.5"><tspan id="SvgjsTspan1126" style="text-decoration:;">CSD</tspan></tspan></text></g></g><g id="SvgjsG1127" transform="translate(320.75,120)"><path id="SvgjsPath1128" d="M 0 0L 36 0L 36 25L 0 25Z" stroke="none" fill="none"></path><g id="SvgjsG1129"><text id="SvgjsText1130" font-family="微软雅黑" text-anchor="middle" font-size="13px" width="36px" fill="#323232" font-weight="400" align="middle" lineHeight="125%" anchor="middle" family="微软雅黑" size="13px" weight="400" font-style="" opacity="1" y="2.875" transform="rotate(0)"><tspan id="SvgjsTspan1131" dy="16" x="18"><tspan id="SvgjsTspan1132" style="text-decoration:;">U</tspan></tspan></text></g></g><g id="SvgjsG1133" transform="translate(320.75,176)"><path id="SvgjsPath1134" d="M 0 0L 36 0L 36 25L 0 25Z" stroke="none" fill="none"></path><g id="SvgjsG1135"><text id="SvgjsText1136" font-family="微软雅黑" text-anchor="middle" font-size="13px" width="36px" fill="#323232" font-weight="400" align="middle" lineHeight="125%" anchor="middle" family="微软雅黑" size="13px" weight="400" font-style="" opacity="1" y="2.875" transform="rotate(0)"><tspan id="SvgjsTspan1137" dy="16" x="18"><tspan id="SvgjsTspan1138" style="text-decoration:;">D</tspan></tspan></text></g></g><g id="SvgjsG1139" transform="translate(105,290)"><path id="SvgjsPath1140" d="M 0 0L 36 0L 36 25L 0 25Z" stroke="none" fill="none"></path><g id="SvgjsG1141"><text id="SvgjsText1142" font-family="微软雅黑" text-anchor="middle" font-size="13px" width="36px" fill="#323232" font-weight="400" align="middle" lineHeight="125%" anchor="middle" family="微软雅黑" size="13px" weight="400" font-style="" opacity="1" y="2.875" transform="rotate(0)"><tspan id="SvgjsTspan1143" dy="16" x="18"><tspan id="SvgjsTspan1144" style="text-decoration:;">U</tspan></tspan></text></g></g><g id="SvgjsG1145" transform="translate(244,269)"><path id="SvgjsPath1146" d="M 0 0L 36 0L 36 25L 0 25Z" stroke="none" fill="none"></path><g id="SvgjsG1147"><text id="SvgjsText1148" font-family="微软雅黑" text-anchor="middle" font-size="13px" width="36px" fill="#323232" font-weight="400" align="middle" lineHeight="125%" anchor="middle" family="微软雅黑" size="13px" weight="400" font-style="" opacity="1" y="2.875" transform="rotate(0)"><tspan id="SvgjsTspan1149" dy="16" x="18"><tspan id="SvgjsTspan1150" style="text-decoration:;">D</tspan></tspan></text></g></g><g id="SvgjsG1151" transform="translate(76,309)"><path id="SvgjsPath1152" d="M 0 0L 36 0L 36 25L 0 25Z" stroke="none" fill="none"></path><g id="SvgjsG1153"><text id="SvgjsText1154" font-family="微软雅黑" text-anchor="middle" font-size="13px" width="36px" fill="#323232" font-weight="400" align="middle" lineHeight="125%" anchor="middle" family="微软雅黑" size="13px" weight="400" font-style="" opacity="1" y="2.875" transform="rotate(0)"><tspan id="SvgjsTspan1155" dy="16" x="18"><tspan id="SvgjsTspan1156" style="text-decoration:;">U</tspan></tspan></text></g></g><g id="SvgjsG1157" transform="translate(124,434)"><path id="SvgjsPath1158" d="M 0 0L 36 0L 36 25L 0 25Z" stroke="none" fill="none"></path><g id="SvgjsG1159"><text id="SvgjsText1160" font-family="微软雅黑" text-anchor="middle" font-size="13px" width="36px" fill="#323232" font-weight="400" align="middle" lineHeight="125%" anchor="middle" family="微软雅黑" size="13px" weight="400" font-style="" opacity="1" y="2.875" transform="rotate(0)"><tspan id="SvgjsTspan1161" dy="16" x="18"><tspan id="SvgjsTspan1162" style="text-decoration:;">U</tspan></tspan></text></g></g><g id="SvgjsG1163" transform="translate(259,410.5)"><path id="SvgjsPath1164" d="M 0 0L 36 0L 36 25L 0 25Z" stroke="none" fill="none"></path><g id="SvgjsG1165"><text id="SvgjsText1166" font-family="微软雅黑" text-anchor="middle" font-size="13px" width="36px" fill="#323232" font-weight="400" align="middle" lineHeight="125%" anchor="middle" family="微软雅黑" size="13px" weight="400" font-style="" opacity="1" y="2.875" transform="rotate(0)"><tspan id="SvgjsTspan1167" dy="16" x="18"><tspan id="SvgjsTspan1168" style="text-decoration:;">D</tspan></tspan></text></g></g><g id="SvgjsG1169" transform="translate(284.75,303)"><path id="SvgjsPath1170" d="M 0 0L 36 0L 36 25L 0 25Z" stroke="none" fill="none"></path><g id="SvgjsG1171"><text id="SvgjsText1172" font-family="微软雅黑" text-anchor="middle" font-size="13px" width="36px" fill="#323232" font-weight="400" align="middle" lineHeight="125%" anchor="middle" family="微软雅黑" size="13px" weight="400" font-style="" opacity="1" y="2.875" transform="rotate(0)"><tspan id="SvgjsTspan1173" dy="16" x="18"><tspan id="SvgjsTspan1174" style="text-decoration:;">U</tspan></tspan></text></g></g><g id="SvgjsG1175" transform="translate(287.25,395)"><path id="SvgjsPath1176" d="M 0 0L 36 0L 36 25L 0 25Z" stroke="none" fill="none"></path><g id="SvgjsG1177"><text id="SvgjsText1178" font-family="微软雅黑" text-anchor="middle" font-size="13px" width="36px" fill="#323232" font-weight="400" align="middle" lineHeight="125%" anchor="middle" family="微软雅黑" size="13px" weight="400" font-style="" opacity="1" y="2.875" transform="rotate(0)"><tspan id="SvgjsTspan1179" dy="16" x="18"><tspan id="SvgjsTspan1180" style="text-decoration:;">D</tspan></tspan></text></g></g><g id="SvgjsG1181" transform="translate(320.75,526)"><path id="SvgjsPath1182" d="M 0 0L 36 0L 36 25L 0 25Z" stroke="none" fill="none"></path><g id="SvgjsG1183"><text id="SvgjsText1184" font-family="微软雅黑" text-anchor="middle" font-size="13px" width="36px" fill="#323232" font-weight="400" align="middle" lineHeight="125%" anchor="middle" family="微软雅黑" size="13px" weight="400" font-style="" opacity="1" y="2.875" transform="rotate(0)"><tspan id="SvgjsTspan1185" dy="16" x="18"><tspan id="SvgjsTspan1186" style="text-decoration:;">U</tspan></tspan></text></g></g><g id="SvgjsG1187" transform="translate(320.75,580.5)"><path id="SvgjsPath1188" d="M 0 0L 36 0L 36 25L 0 25Z" stroke="none" fill="none"></path><g id="SvgjsG1189"><text id="SvgjsText1190" font-family="微软雅黑" text-anchor="middle" font-size="13px" width="36px" fill="#323232" font-weight="400" align="middle" lineHeight="125%" anchor="middle" family="微软雅黑" size="13px" weight="400" font-style="" opacity="1" y="2.875" transform="rotate(0)"><tspan id="SvgjsTspan1191" dy="16" x="18"><tspan id="SvgjsTspan1192" style="text-decoration:;">D</tspan></tspan></text></g></g><g id="SvgjsG1193" transform="translate(497,395)"><path id="SvgjsPath1194" d="M 0 0L 36 0L 36 25L 0 25Z" stroke="none" fill="none"></path><g id="SvgjsG1195"><text id="SvgjsText1196" font-family="微软雅黑" text-anchor="middle" font-size="13px" width="36px" fill="#323232" font-weight="400" align="middle" lineHeight="125%" anchor="middle" family="微软雅黑" size="13px" weight="400" font-style="" opacity="1" y="2.875" transform="rotate(0)"><tspan id="SvgjsTspan1197" dy="16" x="18"><tspan id="SvgjsTspan1198" style="text-decoration:;">U</tspan></tspan></text></g></g><g id="SvgjsG1199" transform="translate(361,434)"><path id="SvgjsPath1200" d="M 0 0L 36 0L 36 25L 0 25Z" stroke="none" fill="none"></path><g id="SvgjsG1201"><text id="SvgjsText1202" font-family="微软雅黑" text-anchor="middle" font-size="13px" width="36px" fill="#323232" font-weight="400" align="middle" lineHeight="125%" anchor="middle" family="微软雅黑" size="13px" weight="400" font-style="" opacity="1" y="2.875" transform="rotate(0)"><tspan id="SvgjsTspan1203" dy="16" x="18"><tspan id="SvgjsTspan1204" style="text-decoration:;">D</tspan></tspan></text></g></g><g id="SvgjsG1205" transform="translate(461,434)"><path id="SvgjsPath1206" d="M 0 0L 36 0L 36 25L 0 25Z" stroke="none" fill="none"></path><g id="SvgjsG1207"><text id="SvgjsText1208" font-family="微软雅黑" text-anchor="middle" font-size="13px" width="36px" fill="#323232" font-weight="400" align="middle" lineHeight="125%" anchor="middle" family="微软雅黑" size="13px" weight="400" font-style="" opacity="1" y="2.875" transform="rotate(0)"><tspan id="SvgjsTspan1209" dy="16" x="18"><tspan id="SvgjsTspan1210" style="text-decoration:;">U</tspan></tspan></text></g></g><g id="SvgjsG1211" transform="translate(347.75,284)"><path id="SvgjsPath1212" d="M 0 0L 36 0L 36 25L 0 25Z" stroke="none" fill="none"></path><g id="SvgjsG1213"><text id="SvgjsText1214" font-family="微软雅黑" text-anchor="middle" font-size="13px" width="36px" fill="#323232" font-weight="400" align="middle" lineHeight="125%" anchor="middle" family="微软雅黑" size="13px" weight="400" font-style="" opacity="1" y="2.875" transform="rotate(0)"><tspan id="SvgjsTspan1215" dy="16" x="18"><tspan id="SvgjsTspan1216" style="text-decoration:;">D</tspan></tspan></text></g></g><g id="SvgjsG1217" transform="translate(124,269)"><path id="SvgjsPath1218" d="M 0 0L 36 0L 36 25L 0 25Z" stroke="none" fill="none"></path><g id="SvgjsG1219"><text id="SvgjsText1220" font-family="微软雅黑" text-anchor="middle" font-size="13px" width="36px" fill="#323232" font-weight="400" align="middle" lineHeight="125%" anchor="middle" family="微软雅黑" size="13px" weight="400" font-style="" opacity="1" y="2.875" transform="rotate(0)"><tspan id="SvgjsTspan1221" dy="16" x="18"><tspan id="SvgjsTspan1222" style="text-decoration:;">U</tspan></tspan></text></g></g><g id="SvgjsG1223" transform="translate(239,434)"><path id="SvgjsPath1224" d="M 0 0L 36 0L 36 25L 0 25Z" stroke="none" fill="none"></path><g id="SvgjsG1225"><text id="SvgjsText1226" font-family="微软雅黑" text-anchor="middle" font-size="13px" width="36px" fill="#323232" font-weight="400" align="middle" lineHeight="125%" anchor="middle" family="微软雅黑" size="13px" weight="400" font-style="" opacity="1" y="2.875" transform="rotate(0)"><tspan id="SvgjsTspan1227" dy="16" x="18"><tspan id="SvgjsTspan1228" style="text-decoration:;">D</tspan></tspan></text></g></g></svg>