<svg id="SvgjsSvg1006" width="656" height="472" xmlns="http://www.w3.org/2000/svg" version="1.1" xmlns:xlink="http://www.w3.org/1999/xlink" xmlns:svgjs="http://svgjs.com/svgjs"><defs id="SvgjsDefs1007"></defs><g id="SvgjsG1008" transform="translate(25,25)"><path id="SvgjsPath1009" d="M 0 211C 0 -70.33333333333333 606 -70.33333333333333 606 211C 606 492.3333333333333 0 492.3333333333333 0 211Z" stroke="rgba(50,50,50,1)" stroke-width="2" fill-opacity="1" fill="#ffffff"></path><g id="SvgjsG1010"><text id="SvgjsText1011" font-family="微软雅黑" text-anchor="middle" font-size="13px" width="586px" fill="#323232" font-weight="400" align="middle" lineHeight="125%" anchor="middle" family="微软雅黑" size="13px" weight="400" font-style="" opacity="1" y="201.375" transform="rotate(0)"></text></g></g><g id="SvgjsG1012" transform="translate(373.00000000000006,75.5)"><path id="SvgjsPath1013" d="M 0 0L 120 0L 120 40L 0 40Z" stroke="none" fill="none"></path><g id="SvgjsG1014"><text id="SvgjsText1015" font-family="微软雅黑" text-anchor="middle" font-size="13px" width="120px" fill="#323232" font-weight="400" align="middle" lineHeight="125%" anchor="middle" family="微软雅黑" size="13px" weight="400" font-style="" opacity="1" y="2.375" transform="rotate(0)"><tspan id="SvgjsTspan1016" dy="16" x="60"><tspan id="SvgjsTspan1017" style="text-decoration:;">资源配额管理子域</tspan></tspan><tspan id="SvgjsTspan1018" dy="16" x="60"><tspan id="SvgjsTspan1019" style="text-decoration:;">（核心）</tspan></tspan></text></g></g><g id="SvgjsG1020" transform="translate(208.00000000000006,52.5)"><path id="SvgjsPath1021" d="M 0 0L 120 0L 120 40L 0 40Z" stroke="none" fill="none"></path><g id="SvgjsG1022"><text id="SvgjsText1023" font-family="微软雅黑" text-anchor="middle" font-size="13px" width="120px" fill="#323232" font-weight="400" align="middle" lineHeight="125%" anchor="middle" family="微软雅黑" size="13px" weight="400" font-style="" opacity="1" y="2.375" transform="rotate(0)"><tspan id="SvgjsTspan1024" dy="16" x="60"><tspan id="SvgjsTspan1025" style="text-decoration:;">用户管理子域</tspan></tspan><tspan id="SvgjsTspan1026" dy="16" x="60"><tspan id="SvgjsTspan1027" style="text-decoration:;">（支撑）</tspan></tspan></text></g></g><g id="SvgjsG1028" transform="translate(54,272)"><path id="SvgjsPath1029" d="M 0 0L 120 0L 120 40L 0 40Z" stroke="none" fill="none"></path><g id="SvgjsG1030"><text id="SvgjsText1031" font-family="微软雅黑" text-anchor="middle" font-size="13px" width="120px" fill="#323232" font-weight="400" align="middle" lineHeight="125%" anchor="middle" family="微软雅黑" size="13px" weight="400" font-style="" opacity="1" y="2.375" transform="rotate(0)"><tspan id="SvgjsTspan1032" dy="16" x="60"><tspan id="SvgjsTspan1033" style="text-decoration:;">订单管理子域</tspan></tspan><tspan id="SvgjsTspan1034" dy="16" x="60"><tspan id="SvgjsTspan1035" style="text-decoration:;">（支撑）</tspan></tspan></text></g></g><g id="SvgjsG1036" transform="translate(317,405)"><path id="SvgjsPath1037" d="M 0 0L 148.5 0L 148.5 38L 0 38Z" stroke="none" fill="none"></path><g id="SvgjsG1038"><text id="SvgjsText1039" font-family="微软雅黑" text-anchor="middle" font-size="13px" width="149px" fill="#323232" font-weight="400" align="middle" lineHeight="125%" anchor="middle" family="微软雅黑" size="13px" weight="400" font-style="" opacity="1" y="9.375" transform="rotate(0)"><tspan id="SvgjsTspan1040" dy="16" x="74.5"><tspan id="SvgjsTspan1041" style="text-decoration:;">资源管理子域</tspan><tspan id="SvgjsTspan1042" style="text-decoration:;font-size: inherit;">（支撑）</tspan></tspan></text></g></g><g id="SvgjsG1043" transform="translate(348.49999999999994,333.5)"><path id="SvgjsPath1044" d="M 0 37.5C 0 -12.5 114.00000000000006 -12.5 114.00000000000006 37.5C 114.00000000000006 87.5 0 87.5 0 37.5Z" stroke="rgba(50,50,50,1)" stroke-width="2" fill-opacity="1" fill="#b2d4eb"></path><g id="SvgjsG1045"><text id="SvgjsText1046" font-family="微软雅黑" text-anchor="middle" font-size="13px" width="95px" fill="#323232" font-weight="400" align="middle" lineHeight="125%" anchor="middle" family="微软雅黑" size="13px" weight="400" font-style="" opacity="1" y="27.875" transform="rotate(0)"><tspan id="SvgjsTspan1047" dy="16" x="57.5"><tspan id="SvgjsTspan1048" style="text-decoration:;">资源</tspan><tspan id="SvgjsTspan1049" style="text-decoration:;font-size: inherit;">上下文</tspan></tspan></text></g></g><g id="SvgjsG1050" transform="translate(436,146)"><path id="SvgjsPath1051" d="M 0 38.5C 0 -12.833333333333334 152 -12.833333333333334 152 38.5C 152 89.83333333333333 0 89.83333333333333 0 38.5Z" stroke="rgba(50,50,50,1)" stroke-width="2" fill-opacity="1" fill="#b2d4eb"></path><g id="SvgjsG1052"><text id="SvgjsText1053" font-family="微软雅黑" text-anchor="middle" font-size="13px" width="132px" fill="#323232" font-weight="400" align="middle" lineHeight="125%" anchor="middle" family="微软雅黑" size="13px" weight="400" font-style="" opacity="1" y="28.875" transform="rotate(0)"><tspan id="SvgjsTspan1054" dy="16" x="76"><tspan id="SvgjsTspan1055" style="text-decoration:;">资源配额上下文</tspan></tspan></text></g></g><g id="SvgjsG1056" transform="translate(140,332)"><path id="SvgjsPath1057" d="M 0 39C 0 -13 147 -13 147 39C 147 91 0 91 0 39Z" stroke="rgba(50,50,50,1)" stroke-width="2" fill-opacity="1" fill="#b2d4eb"></path><g id="SvgjsG1058"><text id="SvgjsText1059" font-family="微软雅黑" text-anchor="middle" font-size="13px" width="127px" fill="#323232" font-weight="400" align="middle" lineHeight="125%" anchor="middle" family="微软雅黑" size="13px" weight="400" font-style="" opacity="1" y="29.375" transform="rotate(0)"><tspan id="SvgjsTspan1060" dy="16" x="73.5"><tspan id="SvgjsTspan1061" style="text-decoration:;">订单上下文</tspan></tspan></text></g></g><g id="SvgjsG1062" transform="translate(95,89.5)"><path id="SvgjsPath1063" d="M 0 38C 0 -12.666666666666666 130 -12.666666666666666 130 38C 130 88.66666666666667 0 88.66666666666667 0 38Z" stroke="rgba(50,50,50,1)" stroke-width="2" fill-opacity="1" fill="#b2d4eb"></path><g id="SvgjsG1064"><text id="SvgjsText1065" font-family="微软雅黑" text-anchor="middle" font-size="13px" width="110px" fill="#323232" font-weight="400" align="middle" lineHeight="125%" anchor="middle" family="微软雅黑" size="13px" weight="400" font-style="" opacity="1" y="28.375" transform="rotate(0)"><tspan id="SvgjsTspan1066" dy="16" x="65"><tspan id="SvgjsTspan1067" style="text-decoration:;">用户上下文</tspan></tspan></text></g></g><g id="SvgjsG1068" transform="translate(214.00000000000006,190)"><path id="SvgjsPath1069" d="M 0 39C 0 -13 153 -13 153 39C 153 91 0 91 0 39Z" stroke="rgba(50,50,50,1)" stroke-width="2" fill-opacity="1" fill="#fddfbb"></path><g id="SvgjsG1070"><text id="SvgjsText1071" font-family="微软雅黑" text-anchor="middle" font-size="13px" width="133px" fill="#323232" font-weight="400" align="middle" lineHeight="125%" anchor="middle" family="微软雅黑" size="13px" weight="400" font-style="" opacity="1" y="29.375" transform="rotate(0)"><tspan id="SvgjsTspan1072" dy="16" x="76.5"><tspan id="SvgjsTspan1073" style="text-decoration:;">安全审计上下文</tspan></tspan></text></g></g><g id="SvgjsG1074"><path id="SvgjsPath1075" d="M378.6513770290094 27.984778792367024C 229.00000000000006 174 475 378 561.3572123903134 376.233955556881" stroke-dasharray="8,5" stroke="#323232" stroke-width="2" fill="none"></path></g><g id="SvgjsG1076"><path id="SvgjsPath1077" d="M25 236C 159 279 212.00000000000006 233 331 140" stroke-dasharray="8,5" stroke="#323232" stroke-width="2" fill="none"></path></g><g id="SvgjsG1078"><path id="SvgjsPath1079" d="M315 446C 365 290 287 244 173 242" stroke-dasharray="8,5" stroke="#323232" stroke-width="2" fill="none"></path></g><g id="SvgjsG1080"><path id="SvgjsPath1081" d="M330 343C 369 320 385 312 432 312" stroke-dasharray="8,5" stroke="#323232" stroke-width="2" fill="none"></path></g><g id="SvgjsG1082" transform="translate(287,268)"><path id="SvgjsPath1083" d="M 0 0L 120 0L 120 40L 0 40Z" stroke="none" fill="none"></path><g id="SvgjsG1084"><text id="SvgjsText1085" font-family="微软雅黑" text-anchor="middle" font-size="13px" width="120px" fill="#323232" font-weight="400" align="middle" lineHeight="125%" anchor="middle" family="微软雅黑" size="13px" weight="400" font-style="" opacity="1" y="2.375" transform="rotate(0)"><tspan id="SvgjsTspan1086" dy="16" x="60"><tspan id="SvgjsTspan1087" style="text-decoration:;">安全审计子域</tspan></tspan><tspan id="SvgjsTspan1088" dy="16" x="60"><tspan id="SvgjsTspan1089" style="text-decoration:;">（通用）</tspan></tspan></text></g></g><g id="SvgjsG1090"><path id="SvgjsPath1091" d="M554.2411809548975 216.0340741737109L454.680847955711 351.573576436351" stroke="#323232" stroke-width="2" fill="none"></path></g><g id="SvgjsG1092"><path id="SvgjsPath1093" d="M441.59576022144495 168.86788218175525L225.00000000000006 127.5" stroke="#323232" stroke-width="2" fill="none"></path></g><g id="SvgjsG1094"><path id="SvgjsPath1095" d="M160 165.5L213.50000000000006 332" stroke="#323232" stroke-width="2" fill="none"></path></g><g id="SvgjsG1096"><path id="SvgjsPath1097" d="M276.07163717094045 391.7018666706431L356.4497474683058 390.05025253169424" stroke="#323232" stroke-width="2" fill="none"></path></g><g id="SvgjsG1098"><path id="SvgjsPath1099" d="M282.13397459621547 356.5L495.6743114854953 222.0076106038166" stroke="#323232" stroke-width="2" fill="none"></path></g><g id="SvgjsG1100"><path id="SvgjsPath1101" d="M448.073576436351 205.180847955711L363.7044450422656 218.55291427061502" stroke="#323232" stroke-width="2" fill="none"></path></g><g id="SvgjsG1102"><path id="SvgjsPath1103" d="M206.50000000000006 151.13397459621547L240.71010071662846 198.6984631039295" stroke="#323232" stroke-width="2" fill="none"></path></g><g id="SvgjsG1104"><path id="SvgjsPath1105" d="M257.2588190451024 263.0340741737109L239.13175911166542 334.92403876506114" stroke="#323232" stroke-width="2" fill="none"></path></g></svg>