<svg id="SvgjsSvg1087" width="656" height="556.5" xmlns="http://www.w3.org/2000/svg" version="1.1" xmlns:xlink="http://www.w3.org/1999/xlink" xmlns:svgjs="http://svgjs.com/svgjs"><defs id="SvgjsDefs1088"></defs><g id="SvgjsG1089" transform="translate(25,109.5)"><path id="SvgjsPath1090" d="M 0 211C 0 -70.33333333333333 606 -70.33333333333333 606 211C 606 492.3333333333333 0 492.3333333333333 0 211Z" stroke="rgba(50,50,50,1)" stroke-width="2" fill-opacity="1" fill="#ffffff"></path><g id="SvgjsG1091"><text id="SvgjsText1092" font-family="微软雅黑" text-anchor="middle" font-size="13px" width="586px" fill="#323232" font-weight="400" align="middle" lineHeight="125%" anchor="middle" family="微软雅黑" size="13px" weight="400" font-style="" opacity="1" y="201.375" transform="rotate(0)"></text></g></g><g id="SvgjsG1093" transform="translate(208,25)"><path id="SvgjsPath1094" d="M 0 0L 240 0L 240 57L 0 57Z" stroke="none" fill="none"></path><g id="SvgjsG1095"><text id="SvgjsText1096" font-family="微软雅黑" text-anchor="middle" font-size="20px" width="240px" fill="#323232" font-weight="700" align="middle" lineHeight="125%" anchor="middle" family="微软雅黑" size="20px" weight="700" font-style="" opacity="1" y="13.5" transform="rotate(0)"><tspan id="SvgjsTspan1097" dy="25" x="120"><tspan id="SvgjsTspan1098" style="text-decoration:;">协调服务领域</tspan></tspan></text></g></g><g id="SvgjsG1099" transform="translate(362,150)"><path id="SvgjsPath1100" d="M 0 0L 120 0L 120 40L 0 40Z" stroke="none" fill="none"></path><g id="SvgjsG1101"><text id="SvgjsText1102" font-family="微软雅黑" text-anchor="middle" font-size="13px" width="120px" fill="#323232" font-weight="400" align="middle" lineHeight="125%" anchor="middle" family="微软雅黑" size="13px" weight="400" font-style="" opacity="1" y="2.375" transform="rotate(0)"><tspan id="SvgjsTspan1103" dy="16" x="60"><tspan id="SvgjsTspan1104" style="text-decoration:;">传输服务管理子域</tspan></tspan><tspan id="SvgjsTspan1105" dy="16" x="60"><tspan id="SvgjsTspan1106" style="text-decoration:;">（核心）</tspan></tspan></text></g></g><g id="SvgjsG1107" transform="translate(193,150)"><path id="SvgjsPath1108" d="M 0 0L 120 0L 120 40L 0 40Z" stroke="none" fill="none"></path><g id="SvgjsG1109"><text id="SvgjsText1110" font-family="微软雅黑" text-anchor="middle" font-size="13px" width="120px" fill="#323232" font-weight="400" align="middle" lineHeight="125%" anchor="middle" family="微软雅黑" size="13px" weight="400" font-style="" opacity="1" y="2.375" transform="rotate(0)"><tspan id="SvgjsTspan1111" dy="16" x="60"><tspan id="SvgjsTspan1112" style="text-decoration:;">设备管理子域</tspan></tspan><tspan id="SvgjsTspan1113" dy="16" x="60"><tspan id="SvgjsTspan1114" style="text-decoration:;">（支撑）</tspan></tspan></text></g></g><g id="SvgjsG1115" transform="translate(54,356.5)"><path id="SvgjsPath1116" d="M 0 0L 120 0L 120 40L 0 40Z" stroke="none" fill="none"></path><g id="SvgjsG1117"><text id="SvgjsText1118" font-family="微软雅黑" text-anchor="middle" font-size="13px" width="120px" fill="#323232" font-weight="400" align="middle" lineHeight="125%" anchor="middle" family="微软雅黑" size="13px" weight="400" font-style="" opacity="1" y="2.375" transform="rotate(0)"><tspan id="SvgjsTspan1119" dy="16" x="60"><tspan id="SvgjsTspan1120" style="text-decoration:;">平台应用管理子域</tspan></tspan><tspan id="SvgjsTspan1121" dy="16" x="60"><tspan id="SvgjsTspan1122" style="text-decoration:;">（支撑）</tspan></tspan></text></g></g><g id="SvgjsG1123" transform="translate(320,482.5)"><path id="SvgjsPath1124" d="M 0 0L 120 0L 120 40L 0 40Z" stroke="none" fill="none"></path><g id="SvgjsG1125"><text id="SvgjsText1126" font-family="微软雅黑" text-anchor="middle" font-size="13px" width="120px" fill="#323232" font-weight="400" align="middle" lineHeight="125%" anchor="middle" family="微软雅黑" size="13px" weight="400" font-style="" opacity="1" y="2.375" transform="rotate(0)"><tspan id="SvgjsTspan1127" dy="16" x="60"><tspan id="SvgjsTspan1128" style="text-decoration:;">定时计划子域</tspan></tspan><tspan id="SvgjsTspan1129" dy="16" x="60"><tspan id="SvgjsTspan1130" style="text-decoration:;">（通用）</tspan></tspan></text></g></g><g id="SvgjsG1131" transform="translate(320,430.5)"><path id="SvgjsPath1132" d="M 0 20.5C 0 -6.833333333333333 204 -6.833333333333333 204 20.5C 204 47.833333333333336 0 47.833333333333336 0 20.5Z" stroke="rgba(50,50,50,1)" stroke-width="2" fill-opacity="1" fill="#fddfbb"></path><g id="SvgjsG1133"><text id="SvgjsText1134" font-family="微软雅黑" text-anchor="middle" font-size="13px" width="184px" fill="#323232" font-weight="400" align="middle" lineHeight="125%" anchor="middle" family="微软雅黑" size="13px" weight="400" font-style="" opacity="1" y="10.875" transform="rotate(0)"><tspan id="SvgjsTspan1135" dy="16" x="102"><tspan id="SvgjsTspan1136" style="text-decoration:;">定时计划</tspan><tspan id="SvgjsTspan1137" style="text-decoration:;font-size: inherit;">上下文</tspan></tspan></text></g></g><g id="SvgjsG1138" transform="translate(423,212.5)"><path id="SvgjsPath1139" d="M 0 38.5C 0 -12.833333333333334 152 -12.833333333333334 152 38.5C 152 89.83333333333333 0 89.83333333333333 0 38.5Z" stroke="rgba(50,50,50,1)" stroke-width="2" fill-opacity="1" fill="#b2d4eb"></path><g id="SvgjsG1140"><text id="SvgjsText1141" font-family="微软雅黑" text-anchor="middle" font-size="13px" width="132px" fill="#323232" font-weight="400" align="middle" lineHeight="125%" anchor="middle" family="微软雅黑" size="13px" weight="400" font-style="" opacity="1" y="28.875" transform="rotate(0)"><tspan id="SvgjsTspan1142" dy="16" x="76"><tspan id="SvgjsTspan1143" style="text-decoration:;">传输服务管理上下文</tspan></tspan></text></g></g><g id="SvgjsG1144" transform="translate(140,416.5)"><path id="SvgjsPath1145" d="M 0 39C 0 -13 147 -13 147 39C 147 91 0 91 0 39Z" stroke="rgba(50,50,50,1)" stroke-width="2" fill-opacity="1" fill="#b2d4eb"></path><g id="SvgjsG1146"><text id="SvgjsText1147" font-family="微软雅黑" text-anchor="middle" font-size="13px" width="127px" fill="#323232" font-weight="400" align="middle" lineHeight="125%" anchor="middle" family="微软雅黑" size="13px" weight="400" font-style="" opacity="1" y="29.375" transform="rotate(0)"><tspan id="SvgjsTspan1148" dy="16" x="73.5"><tspan id="SvgjsTspan1149" style="text-decoration:;">平台应用管理上下文</tspan></tspan></text></g></g><g id="SvgjsG1150" transform="translate(68,195)"><path id="SvgjsPath1151" d="M 0 38C 0 -12.666666666666666 130 -12.666666666666666 130 38C 130 88.66666666666667 0 88.66666666666667 0 38Z" stroke="rgba(50,50,50,1)" stroke-width="2" fill-opacity="1" fill="#b2d4eb"></path><g id="SvgjsG1152"><text id="SvgjsText1153" font-family="微软雅黑" text-anchor="middle" font-size="13px" width="110px" fill="#323232" font-weight="400" align="middle" lineHeight="125%" anchor="middle" family="微软雅黑" size="13px" weight="400" font-style="" opacity="1" y="28.375" transform="rotate(0)"><tspan id="SvgjsTspan1154" dy="16" x="65"><tspan id="SvgjsTspan1155" style="text-decoration:;">设备管理上下文</tspan></tspan></text></g></g><g id="SvgjsG1156" transform="translate(214,274.5)"><path id="SvgjsPath1157" d="M 0 39C 0 -13 153 -13 153 39C 153 91 0 91 0 39Z" stroke="rgba(50,50,50,1)" stroke-width="2" fill-opacity="1" fill="#fddfbb"></path><g id="SvgjsG1158"><text id="SvgjsText1159" font-family="微软雅黑" text-anchor="middle" font-size="13px" width="133px" fill="#323232" font-weight="400" align="middle" lineHeight="125%" anchor="middle" family="微软雅黑" size="13px" weight="400" font-style="" opacity="1" y="29.375" transform="rotate(0)"><tspan id="SvgjsTspan1160" dy="16" x="76.5"><tspan id="SvgjsTspan1161" style="text-decoration:;">安全审计上下文</tspan></tspan></text></g></g><g id="SvgjsG1162"><path id="SvgjsPath1163" d="M378.6513770290094 112.48477879236697C 229 258.5 475 462.5 561.3572123903134 460.733955556881" stroke-dasharray="8,5" stroke="#323232" stroke-width="2" fill="none"></path></g><g id="SvgjsG1164"><path id="SvgjsPath1165" d="M25 320.5C 159 363.5 212 317.5 331 224.5" stroke-dasharray="8,5" stroke="#323232" stroke-width="2" fill="none"></path></g><g id="SvgjsG1166"><path id="SvgjsPath1167" d="M315 530.5C 365 374.5 287 328.5 173 326.5" stroke-dasharray="8,5" stroke="#323232" stroke-width="2" fill="none"></path></g><g id="SvgjsG1168"><path id="SvgjsPath1169" d="M330 427.5C 369 404.5 385 396.5 432 396.5" stroke-dasharray="8,5" stroke="#323232" stroke-width="2" fill="none"></path></g><g id="SvgjsG1170" transform="translate(287,352.5)"><path id="SvgjsPath1171" d="M 0 0L 120 0L 120 40L 0 40Z" stroke="none" fill="none"></path><g id="SvgjsG1172"><text id="SvgjsText1173" font-family="微软雅黑" text-anchor="middle" font-size="13px" width="120px" fill="#323232" font-weight="400" align="middle" lineHeight="125%" anchor="middle" family="微软雅黑" size="13px" weight="400" font-style="" opacity="1" y="2.375" transform="rotate(0)"><tspan id="SvgjsTspan1174" dy="16" x="60"><tspan id="SvgjsTspan1175" style="text-decoration:;">安全审计子域</tspan></tspan><tspan id="SvgjsTspan1176" dy="16" x="60"><tspan id="SvgjsTspan1177" style="text-decoration:;">（通用）</tspan></tspan></text></g></g><g id="SvgjsG1178"><path id="SvgjsPath1179" d="M564.3572123903134 270.733955556881L459.6513770290094 432.48477879236697" stroke="#323232" stroke-width="2" fill="none"></path></g><g id="SvgjsG1180"><path id="SvgjsPath1181" d="M423 251L198 233" stroke="#323232" stroke-width="2" fill="none"></path></g><g id="SvgjsG1182"><path id="SvgjsPath1183" d="M133 271L213.5 416.5" stroke="#323232" stroke-width="2" fill="none"></path></g><g id="SvgjsG1184"><path id="SvgjsPath1185" d="M276.07163717094045 476.2018666706431L332.7764571353075 460.6022225211328" stroke="#323232" stroke-width="2" fill="none"></path></g><g id="SvgjsG1186"><path id="SvgjsPath1187" d="M282.13397459621547 441L520.4790554669992 287.5455767409634" stroke="#323232" stroke-width="2" fill="none"></path></g><g id="SvgjsG1188"><path id="SvgjsPath1189" d="M451.3680805733027 281.7412295168564L359.40373334128617 295.3567256581192" stroke="#323232" stroke-width="2" fill="none"></path></g><g id="SvgjsG1190"><path id="SvgjsPath1191" d="M179.5 256.6339745962156L240.7101007166284 283.19846310392956" stroke="#323232" stroke-width="2" fill="none"></path></g><g id="SvgjsG1192"><path id="SvgjsPath1193" d="M257.2588190451024 347.5340741737109L239.13175911166536 419.424038765061" stroke="#323232" stroke-width="2" fill="none"></path></g></svg>