<svg id="SvgjsSvg1006" width="611.5" height="562.375" xmlns="http://www.w3.org/2000/svg" version="1.1" xmlns:xlink="http://www.w3.org/1999/xlink" xmlns:svgjs="http://svgjs.com/svgjs"><defs id="SvgjsDefs1007"></defs><g id="SvgjsG1008" transform="translate(25,25)"><path id="SvgjsPath1009" d="M 0 0L 475.1034482758621 0L 475.1034482758621 171.62181818181818L 0 171.62181818181818Z" stroke="rgba(50,50,50,1)" stroke-width="2" fill-opacity="1" fill="#ffffff"></path><g id="SvgjsG1010"><text id="SvgjsText1011" font-family="微软雅黑" text-anchor="middle" font-size="13px" width="456px" fill="#323232" font-weight="400" align="middle" lineHeight="125%" anchor="middle" family="微软雅黑" size="13px" weight="400" font-style="" opacity="1" y="74.68590909090909" transform="rotate(0)"></text></g></g><g id="SvgjsG1012" transform="translate(25,194.6890909090909)"><path id="SvgjsPath1013" d="M 0 0L 475.1034482758621 0L 475.1034482758621 171.62181818181818L 0 171.62181818181818Z" stroke="rgba(50,50,50,1)" stroke-width="2" fill-opacity="1" fill="#ffffff"></path><g id="SvgjsG1014"><text id="SvgjsText1015" font-family="微软雅黑" text-anchor="middle" font-size="13px" width="456px" fill="#323232" font-weight="400" align="middle" lineHeight="125%" anchor="middle" family="微软雅黑" size="13px" weight="400" font-style="" opacity="1" y="74.68590909090909" transform="rotate(0)"></text></g></g><g id="SvgjsG1016" transform="translate(25,365.3781818181818)"><path id="SvgjsPath1017" d="M 0 0L 475.1034482758621 0L 475.1034482758621 171.62181818181818L 0 171.62181818181818Z" stroke="rgba(50,50,50,1)" stroke-width="2" fill-opacity="1" fill="#ffffff"></path><g id="SvgjsG1018"><text id="SvgjsText1019" font-family="微软雅黑" text-anchor="middle" font-size="13px" width="456px" fill="#323232" font-weight="400" align="middle" lineHeight="125%" anchor="middle" family="微软雅黑" size="13px" weight="400" font-style="" opacity="1" y="74.68590909090909" transform="rotate(0)"></text></g></g><g id="SvgjsG1020" transform="translate(206.51724137931035,229.66812227074234)"><path id="SvgjsPath1021" d="M 0 4Q 0 0 4 0L 108.0689655172414 0Q 112.0689655172414 0 112.0689655172414 4L 112.0689655172414 58.51091703056768Q 112.0689655172414 62.51091703056768 108.0689655172414 62.51091703056768L 4 62.51091703056768Q 0 62.51091703056768 0 58.51091703056768Z" stroke="rgba(50,50,50,1)" stroke-width="2" fill-opacity="1" fill="#fddfbb"></path><g id="SvgjsG1022"><text id="SvgjsText1023" font-family="&quot;Comic Sans MS&quot;" text-anchor="middle" font-size="13px" width="93px" fill="#323232" font-weight="700" align="middle" lineHeight="125%" anchor="middle" family="&quot;Comic Sans MS&quot;" size="13px" weight="700" font-style="" opacity="1" y="20.13045851528384" transform="rotate(0)"><tspan id="SvgjsTspan1024" dy="16" x="56.5"><tspan id="SvgjsTspan1025" style="text-decoration:;">UTOS</tspan></tspan></text></g></g><g id="SvgjsG1026" transform="translate(48.5,431.4890829694323)"><path id="SvgjsPath1027" d="M 0 4Q 0 0 4 0L 108.0689655172414 0Q 112.0689655172414 0 112.0689655172414 4L 112.0689655172414 58.51091703056768Q 112.0689655172414 62.51091703056768 108.0689655172414 62.51091703056768L 4 62.51091703056768Q 0 62.51091703056768 0 58.51091703056768Z" stroke="rgba(50,50,50,1)" stroke-width="2" fill-opacity="1" fill="#b2d4eb"></path><g id="SvgjsG1028"><text id="SvgjsText1029" font-family="&quot;Comic Sans MS&quot;" text-anchor="middle" font-size="13px" width="93px" fill="#323232" font-weight="700" align="middle" lineHeight="125%" anchor="middle" family="&quot;Comic Sans MS&quot;" size="13px" weight="700" font-style="" opacity="1" y="20.13045851528384" transform="rotate(0)"><tspan id="SvgjsTspan1030" dy="16" x="56.5"><tspan id="SvgjsTspan1031" style="text-decoration:;">AuthN</tspan></tspan></text></g></g><g id="SvgjsG1032" transform="translate(358.9310344827586,431.4890829694323)"><path id="SvgjsPath1033" d="M 0 4Q 0 0 4 0L 108.0689655172414 0Q 112.0689655172414 0 112.0689655172414 4L 112.0689655172414 58.51091703056768Q 112.0689655172414 62.51091703056768 108.0689655172414 62.51091703056768L 4 62.51091703056768Q 0 62.51091703056768 0 58.51091703056768Z" stroke="rgba(50,50,50,1)" stroke-width="2" fill-opacity="1" fill="#b2d4eb"></path><g id="SvgjsG1034"><text id="SvgjsText1035" font-family="&quot;Comic Sans MS&quot;" text-anchor="middle" font-size="13px" width="93px" fill="#323232" font-weight="700" align="middle" lineHeight="125%" anchor="middle" family="&quot;Comic Sans MS&quot;" size="13px" weight="700" font-style="" opacity="1" y="20.13045851528384" transform="rotate(0)"><tspan id="SvgjsTspan1036" dy="16" x="56.5"><tspan id="SvgjsTspan1037" style="text-decoration:;">AuthZ</tspan></tspan></text></g></g><g id="SvgjsG1038" transform="translate(206.51724137931035,330.5786026200874)"><path id="SvgjsPath1039" d="M 0 4Q 0 0 4 0L 108.0689655172414 0Q 112.0689655172414 0 112.0689655172414 4L 112.0689655172414 58.51091703056768Q 112.0689655172414 62.51091703056768 108.0689655172414 62.51091703056768L 4 62.51091703056768Q 0 62.51091703056768 0 58.51091703056768Z" stroke="rgba(50,50,50,1)" stroke-width="2" fill-opacity="1" fill="#b2d4eb"></path><g id="SvgjsG1040"><text id="SvgjsText1041" font-family="&quot;Comic Sans MS&quot;" text-anchor="middle" font-size="13px" width="93px" fill="#323232" font-weight="700" align="middle" lineHeight="125%" anchor="middle" family="&quot;Comic Sans MS&quot;" size="13px" weight="700" font-style="" opacity="1" y="20.13045851528384" transform="rotate(0)"><tspan id="SvgjsTspan1042" dy="16" x="56.5"><tspan id="SvgjsTspan1043" style="text-decoration:;">Aggregation</tspan></tspan></text></g></g><g id="SvgjsG1044" transform="translate(48.5,85)"><path id="SvgjsPath1045" d="M 0 4Q 0 0 4 0L 108.0689655172414 0Q 112.0689655172414 0 112.0689655172414 4L 112.0689655172414 58.51091703056768Q 112.0689655172414 62.51091703056768 108.0689655172414 62.51091703056768L 4 62.51091703056768Q 0 62.51091703056768 0 58.51091703056768Z" stroke="rgba(50,50,50,1)" stroke-width="2" fill-opacity="1" fill="#b2d4eb"></path><g id="SvgjsG1046"><text id="SvgjsText1047" font-family="&quot;Comic Sans MS&quot;" text-anchor="middle" font-size="13px" width="93px" fill="#323232" font-weight="700" align="middle" lineHeight="125%" anchor="middle" family="&quot;Comic Sans MS&quot;" size="13px" weight="700" font-style="" opacity="1" y="20.13045851528384" transform="rotate(0)"><tspan id="SvgjsTspan1048" dy="16" x="56.5"><tspan id="SvgjsTspan1049" style="text-decoration:;">IoT Monitor</tspan></tspan></text></g></g><g id="SvgjsG1050" transform="translate(206.51724137931035,431.4890829694323)"><path id="SvgjsPath1051" d="M 0 4Q 0 0 4 0L 108.0689655172414 0Q 112.0689655172414 0 112.0689655172414 4L 112.0689655172414 58.51091703056768Q 112.0689655172414 62.51091703056768 108.0689655172414 62.51091703056768L 4 62.51091703056768Q 0 62.51091703056768 0 58.51091703056768Z" stroke="rgba(50,50,50,1)" stroke-width="2" fill-opacity="1" fill="#ffffff"></path><g id="SvgjsG1052"><text id="SvgjsText1053" font-family="微软雅黑" text-anchor="middle" font-size="13px" width="93px" fill="#323232" font-weight="400" align="middle" lineHeight="125%" anchor="middle" family="微软雅黑" size="13px" weight="400" font-style="" opacity="1" y="20.13045851528384" transform="rotate(0)"><tspan id="SvgjsTspan1054" dy="16" x="56.5"><tspan id="SvgjsTspan1055" style="text-decoration:;">Session</tspan></tspan></text></g></g><g id="SvgjsG1056" transform="translate(206.51724137931035,85)"><path id="SvgjsPath1057" d="M 0 4Q 0 0 4 0L 108.0689655172414 0Q 112.0689655172414 0 112.0689655172414 4L 112.0689655172414 58.51091703056768Q 112.0689655172414 62.51091703056768 108.0689655172414 62.51091703056768L 4 62.51091703056768Q 0 62.51091703056768 0 58.51091703056768Z" stroke="rgba(50,50,50,1)" stroke-width="2" fill-opacity="1" fill="#b2d4eb"></path><g id="SvgjsG1058"><text id="SvgjsText1059" font-family="&quot;Comic Sans MS&quot;" text-anchor="middle" font-size="13px" width="93px" fill="#323232" font-weight="700" align="middle" lineHeight="125%" anchor="middle" family="&quot;Comic Sans MS&quot;" size="13px" weight="700" font-style="" opacity="1" y="20.13045851528384" transform="rotate(0)"><tspan id="SvgjsTspan1060" dy="16" x="56.5"><tspan id="SvgjsTspan1061" style="text-decoration:;">TUM</tspan></tspan></text></g></g><g id="SvgjsG1062" transform="translate(358.9310344827586,85)"><path id="SvgjsPath1063" d="M 0 4Q 0 0 4 0L 108.0689655172414 0Q 112.0689655172414 0 112.0689655172414 4L 112.0689655172414 58.51091703056768Q 112.0689655172414 62.51091703056768 108.0689655172414 62.51091703056768L 4 62.51091703056768Q 0 62.51091703056768 0 58.51091703056768Z" stroke="rgba(50,50,50,1)" stroke-width="2" fill-opacity="1" fill="#ffffff"></path><g id="SvgjsG1064"><text id="SvgjsText1065" font-family="微软雅黑" text-anchor="middle" font-size="13px" width="93px" fill="#323232" font-weight="400" align="middle" lineHeight="125%" anchor="middle" family="微软雅黑" size="13px" weight="400" font-style="" opacity="1" y="20.13045851528384" transform="rotate(0)"><tspan id="SvgjsTspan1066" dy="16" x="56.5"><tspan id="SvgjsTspan1067" style="text-decoration:;">Thingsboard</tspan></tspan></text></g></g><g id="SvgjsG1068" transform="translate(531.5,483)"><path id="SvgjsPath1069" d="M 0 0L 55 0L 55 36.68273092369476L 0 36.68273092369476Z" stroke="rgba(50,50,50,1)" stroke-width="2" fill-opacity="1" fill="#b2d4eb"></path><g id="SvgjsG1070"><text id="SvgjsText1071" font-family="&quot;Comic Sans MS&quot;" text-anchor="middle" font-size="13px" width="35px" fill="#323232" font-weight="700" align="middle" lineHeight="125%" anchor="middle" family="&quot;Comic Sans MS&quot;" size="13px" weight="700" font-style="" opacity="1" y="7.216365461847381" transform="rotate(0)"><tspan id="SvgjsTspan1072" dy="16" x="27.5"><tspan id="SvgjsTspan1073" style="text-decoration:;">修改</tspan></tspan></text></g></g><g id="SvgjsG1074" transform="translate(531.5,431.4890829694323)"><path id="SvgjsPath1075" d="M 0 0L 55 0L 55 36.68273092369476L 0 36.68273092369476Z" stroke="rgba(50,50,50,1)" stroke-width="2" fill-opacity="1" fill="#fddfbb"></path><g id="SvgjsG1076"><text id="SvgjsText1077" font-family="&quot;Comic Sans MS&quot;" text-anchor="middle" font-size="13px" width="35px" fill="#323232" font-weight="700" align="middle" lineHeight="125%" anchor="middle" family="&quot;Comic Sans MS&quot;" size="13px" weight="700" font-style="" opacity="1" y="7.216365461847381" transform="rotate(0)"><tspan id="SvgjsTspan1078" dy="16" x="27.5"><tspan id="SvgjsTspan1079" style="text-decoration:;">新增</tspan></tspan></text></g></g></svg>