<svg id="SvgjsSvg1098" width="456.125" height="464.5" xmlns="http://www.w3.org/2000/svg" version="1.1" xmlns:xlink="http://www.w3.org/1999/xlink" xmlns:svgjs="http://svgjs.com/svgjs"><defs id="SvgjsDefs1099"><marker id="SvgjsMarker1126" markerWidth="14" markerHeight="10" refX="10" refY="5" viewBox="0 0 14 10" orient="auto" markerUnits="userSpaceOnUse" stroke-dasharray="0,0"><path id="SvgjsPath1127" d="M0,0 L14,5 L0,10 L0,0" fill="#323232" stroke="#323232" stroke-width="1"></path></marker><marker id="SvgjsMarker1160" markerWidth="14" markerHeight="10" refX="10" refY="5" viewBox="0 0 14 10" orient="auto" markerUnits="userSpaceOnUse" stroke-dasharray="0,0"><path id="SvgjsPath1161" d="M0,0 L14,5 L0,10 L0,0" fill="#323232" stroke="#323232" stroke-width="1"></path></marker><marker id="SvgjsMarker1164" markerWidth="14" markerHeight="10" refX="10" refY="5" viewBox="0 0 14 10" orient="auto" markerUnits="userSpaceOnUse" stroke-dasharray="0,0"><path id="SvgjsPath1165" d="M0,0 L14,5 L0,10 L0,0" fill="#323232" stroke="#323232" stroke-width="1"></path></marker><marker id="SvgjsMarker1168" markerWidth="14" markerHeight="10" refX="10" refY="5" viewBox="0 0 14 10" orient="auto" markerUnits="userSpaceOnUse" stroke-dasharray="0,0"><path id="SvgjsPath1169" d="M0,0 L14,5 L0,10 L0,0" fill="#323232" stroke="#323232" stroke-width="1"></path></marker><marker id="SvgjsMarker1172" markerWidth="14" markerHeight="10" refX="10" refY="5" viewBox="0 0 14 10" orient="auto" markerUnits="userSpaceOnUse" stroke-dasharray="0,0"><path id="SvgjsPath1173" d="M0,0 L14,5 L0,10 L0,0" fill="#323232" stroke="#323232" stroke-width="1"></path></marker><marker id="SvgjsMarker1176" markerWidth="14" markerHeight="10" refX="10" refY="5" viewBox="0 0 14 10" orient="auto" markerUnits="userSpaceOnUse" stroke-dasharray="0,0"><path id="SvgjsPath1177" d="M0,0 L14,5 L0,10 L0,0" fill="#323232" stroke="#323232" stroke-width="1"></path></marker><marker id="SvgjsMarker1180" markerWidth="14" markerHeight="10" refX="10" refY="5" viewBox="0 0 14 10" orient="auto" markerUnits="userSpaceOnUse" stroke-dasharray="0,0"><path id="SvgjsPath1181" d="M0,0 L14,5 L0,10 L0,0" fill="#323232" stroke="#323232" stroke-width="1"></path></marker><marker id="SvgjsMarker1184" markerWidth="14" markerHeight="10" refX="10" refY="5" viewBox="0 0 14 10" orient="auto" markerUnits="userSpaceOnUse" stroke-dasharray="0,0"><path id="SvgjsPath1185" d="M0,0 L14,5 L0,10 L0,0" fill="#323232" stroke="#323232" stroke-width="1"></path></marker><marker id="SvgjsMarker1188" markerWidth="14" markerHeight="10" refX="10" refY="5" viewBox="0 0 14 10" orient="auto" markerUnits="userSpaceOnUse" stroke-dasharray="0,0"><path id="SvgjsPath1189" d="M0,0 L14,5 L0,10 L0,0" fill="#323232" stroke="#323232" stroke-width="1"></path></marker></defs><g id="SvgjsG1100" transform="translate(172.125,100.75)"><path id="SvgjsPath1101" d="M 0 4Q 0 0 4 0L 255.125 0Q 259.125 0 259.125 4L 259.125 135.75Q 259.125 139.75 255.125 139.75L 4 139.75Q 0 139.75 0 135.75Z" stroke="rgba(50,50,50,1)" stroke-width="2" fill-opacity="1" fill="#0071bc"></path><g id="SvgjsG1102"><text id="SvgjsText1103" font-family="&quot;Comic Sans MS&quot;" text-anchor="middle" font-size="13px" width="240px" fill="#323232" font-weight="700" align="middle" lineHeight="125%" anchor="middle" family="&quot;Comic Sans MS&quot;" size="13px" weight="700" font-style="" opacity="1" y="58.75" transform="rotate(0)"></text></g></g><g id="SvgjsG1104" transform="translate(25,322.5)"><path id="SvgjsPath1105" d="M 0 4Q 0 0 4 0L 402.25 0Q 406.25 0 406.25 4L 406.25 113Q 406.25 117 402.25 117L 4 117Q 0 117 0 113Z" stroke="rgba(50,50,50,1)" stroke-width="2" fill-opacity="1" fill="#fddfbb"></path><g id="SvgjsG1106"><text id="SvgjsText1107" font-family="&quot;Comic Sans MS&quot;" text-anchor="middle" font-size="13px" width="387px" fill="#323232" font-weight="700" align="middle" lineHeight="125%" anchor="middle" family="&quot;Comic Sans MS&quot;" size="13px" weight="700" font-style="" opacity="1" y="47.375" transform="rotate(0)"></text></g></g><g id="SvgjsG1108" transform="translate(25,25)"><path id="SvgjsPath1109" d="M 0 4Q 0 0 4 0L 102.25 0Q 106.25 0 106.25 4L 106.25 264.5Q 106.25 268.5 102.25 268.5L 4 268.5Q 0 268.5 0 264.5Z" stroke="rgba(50,50,50,1)" stroke-width="2" fill-opacity="1" fill="#b2d4eb"></path><g id="SvgjsG1110"><text id="SvgjsText1111" font-family="&quot;Comic Sans MS&quot;" text-anchor="middle" font-size="13px" width="87px" fill="#323232" font-weight="700" align="middle" lineHeight="125%" anchor="middle" family="&quot;Comic Sans MS&quot;" size="13px" weight="700" font-style="" opacity="1" y="123.125" transform="rotate(0)"></text></g></g><g id="SvgjsG1112" transform="translate(43.125,48.5)"><path id="SvgjsPath1113" d="M 0 35C 0 -11.666666666666666 70 -11.666666666666666 70 35C 70 81.66666666666667 0 81.66666666666667 0 35Z" stroke="rgba(50,50,50,1)" stroke-width="2" fill-opacity="1" fill="#ffffff"></path><g id="SvgjsG1114"><text id="SvgjsText1115" font-family="微软雅黑" text-anchor="middle" font-size="13px" width="50px" fill="#323232" font-weight="400" align="middle" lineHeight="125%" anchor="middle" family="微软雅黑" size="13px" weight="400" font-style="" opacity="1" y="23.875" transform="rotate(0)"><tspan id="SvgjsTspan1116" dy="16" x="35"><tspan id="SvgjsTspan1117" style="text-decoration:;">应用</tspan></tspan></text></g></g><g id="SvgjsG1118" transform="translate(43.125,198.5)"><path id="SvgjsPath1119" d="M 0 35C 0 -11.666666666666666 70 -11.666666666666666 70 35C 70 81.66666666666667 0 81.66666666666667 0 35Z" stroke="rgba(50,50,50,1)" stroke-width="2" fill-opacity="1" fill="#ffffff"></path><g id="SvgjsG1120"><text id="SvgjsText1121" font-family="微软雅黑" text-anchor="middle" font-size="13px" width="50px" fill="#323232" font-weight="400" align="middle" lineHeight="125%" anchor="middle" family="微软雅黑" size="13px" weight="400" font-style="" opacity="1" y="23.875" transform="rotate(0)"><tspan id="SvgjsTspan1122" dy="16" x="35"><tspan id="SvgjsTspan1123" style="text-decoration:;">资源</tspan></tspan></text></g></g><g id="SvgjsG1124"><path id="SvgjsPath1125" d="M78.125 197.5L78.125 158.5L78.125 158.5L78.125 122.10000000000002" stroke="#323232" stroke-width="2" fill="none" marker-end="url(#SvgjsMarker1126)"></path></g><g id="SvgjsG1128" transform="translate(193.125,124.25)"><path id="SvgjsPath1129" d="M 0 35C 0 -11.666666666666666 70 -11.666666666666666 70 35C 70 81.66666666666667 0 81.66666666666667 0 35Z" stroke="rgba(50,50,50,1)" stroke-width="2" fill-opacity="1" fill="#ffffff"></path><g id="SvgjsG1130"><text id="SvgjsText1131" font-family="微软雅黑" text-anchor="middle" font-size="13px" width="50px" fill="#323232" font-weight="400" align="middle" lineHeight="125%" anchor="middle" family="微软雅黑" size="13px" weight="400" font-style="" opacity="1" y="23.875" transform="rotate(0)"><tspan id="SvgjsTspan1132" dy="16" x="35"><tspan id="SvgjsTspan1133" style="text-decoration:;">组织</tspan></tspan></text></g></g><g id="SvgjsG1134" transform="translate(343.125,348.5)"><path id="SvgjsPath1135" d="M 0 35C 0 -11.666666666666666 70 -11.666666666666666 70 35C 70 81.66666666666667 0 81.66666666666667 0 35Z" stroke="rgba(50,50,50,1)" stroke-width="2" fill-opacity="1" fill="#ffffff"></path><g id="SvgjsG1136"><text id="SvgjsText1137" font-family="微软雅黑" text-anchor="middle" font-size="13px" width="50px" fill="#323232" font-weight="400" align="middle" lineHeight="125%" anchor="middle" family="微软雅黑" size="13px" weight="400" font-style="" opacity="1" y="23.875" transform="rotate(0)"><tspan id="SvgjsTspan1138" dy="16" x="35"><tspan id="SvgjsTspan1139" style="text-decoration:;">帐号</tspan></tspan></text></g></g><g id="SvgjsG1140" transform="translate(193.125,348.5)"><path id="SvgjsPath1141" d="M 0 35C 0 -11.666666666666666 70 -11.666666666666666 70 35C 70 81.66666666666667 0 81.66666666666667 0 35Z" stroke="rgba(50,50,50,1)" stroke-width="2" fill-opacity="1" fill="#ffffff"></path><g id="SvgjsG1142"><text id="SvgjsText1143" font-family="微软雅黑" text-anchor="middle" font-size="13px" width="50px" fill="#323232" font-weight="400" align="middle" lineHeight="125%" anchor="middle" family="微软雅黑" size="13px" weight="400" font-style="" opacity="1" y="23.875" transform="rotate(0)"><tspan id="SvgjsTspan1144" dy="16" x="35"><tspan id="SvgjsTspan1145" style="text-decoration:;">角色</tspan></tspan></text></g></g><g id="SvgjsG1146" transform="translate(43.125,348.5)"><path id="SvgjsPath1147" d="M 0 35C 0 -11.666666666666666 70 -11.666666666666666 70 35C 70 81.66666666666667 0 81.66666666666667 0 35Z" stroke="rgba(50,50,50,1)" stroke-width="2" fill-opacity="1" fill="#ffffff"></path><g id="SvgjsG1148"><text id="SvgjsText1149" font-family="微软雅黑" text-anchor="middle" font-size="13px" width="50px" fill="#323232" font-weight="400" align="middle" lineHeight="125%" anchor="middle" family="微软雅黑" size="13px" weight="400" font-style="" opacity="1" y="23.875" transform="rotate(0)"><tspan id="SvgjsTspan1150" dy="16" x="35"><tspan id="SvgjsTspan1151" style="text-decoration:;">权限</tspan></tspan></text></g></g><g id="SvgjsG1152" transform="translate(343.125,124.25)"><path id="SvgjsPath1153" d="M 0 35C 0 -11.666666666666666 70 -11.666666666666666 70 35C 70 81.66666666666667 0 81.66666666666667 0 35Z" stroke="rgba(50,50,50,1)" stroke-width="2" fill-opacity="1" fill="#ffffff"></path><g id="SvgjsG1154"><text id="SvgjsText1155" font-family="微软雅黑" text-anchor="middle" font-size="13px" width="50px" fill="#323232" font-weight="400" align="middle" lineHeight="125%" anchor="middle" family="微软雅黑" size="13px" weight="400" font-style="" opacity="1" y="23.875" transform="rotate(0)"><tspan id="SvgjsTspan1156" dy="16" x="35"><tspan id="SvgjsTspan1157" style="text-decoration:;">租户</tspan></tspan></text></g></g><g id="SvgjsG1158"><path id="SvgjsPath1159" d="M78.125 347.5L78.125 308.5L78.125 308.5L78.125 272.1" stroke="#323232" stroke-width="2" fill="none" marker-end="url(#SvgjsMarker1160)"></path></g><g id="SvgjsG1162"><path id="SvgjsPath1163" d="M114.125 383.5L153.125 383.5L153.125 383.5L189.52499999999998 383.5" stroke="#323232" stroke-width="2" fill="none" marker-end="url(#SvgjsMarker1164)"></path></g><g id="SvgjsG1166"><path id="SvgjsPath1167" d="M342.125 383.5L303.125 383.5L303.125 383.5L266.725 383.5" stroke="#323232" stroke-width="2" fill="none" marker-end="url(#SvgjsMarker1168)"></path></g><g id="SvgjsG1170"><path id="SvgjsPath1171" d="M228.125 347.5L228.125 271.375L228.125 271.375L228.125 197.85000000000002" stroke="#323232" stroke-width="2" fill="none" marker-end="url(#SvgjsMarker1172)"></path></g><g id="SvgjsG1174"><path id="SvgjsPath1175" d="M229.05432918247652 348.13074768707884C 339.125 309.5 282.125 242.5 374.98519113169993 196.01113607382968" stroke="#323232" stroke-width="2" fill="none" marker-end="url(#SvgjsMarker1176)"></path></g><g id="SvgjsG1178"><path id="SvgjsPath1179" d="M378.125 347.5L378.125 271.375L378.125 271.375L378.125 197.85000000000002" stroke="#323232" stroke-width="2" fill="none" marker-end="url(#SvgjsMarker1180)"></path></g><g id="SvgjsG1182"><path id="SvgjsPath1183" d="M264.125 159.25L303.125 159.25L303.125 159.25L339.525 159.25" stroke="#323232" stroke-width="2" fill="none" marker-end="url(#SvgjsMarker1184)"></path></g><g id="SvgjsG1186"><path id="SvgjsPath1187" d="M377.13567282184306 348.35428886603955C 300.125 342.5 319.125 249.5 231.1121507851875 196.2592113344678" stroke="#323232" stroke-width="2" fill="none" marker-end="url(#SvgjsMarker1188)"></path></g></svg>